<?xml version="1.0" encoding="utf-8"?>
<!-- Generator: Adobe Illustrator 19.0.1, SVG Export Plug-In . SVG Version: 6.00 Build 0)  -->
<svg version="1.1" id="Layer_1" xmlns="http://www.w3.org/2000/svg" xmlns:xlink="http://www.w3.org/1999/xlink" x="0px" y="0px"
	 viewBox="0 0 110.3 119" style="enable-background:new 0 0 110.3 119;" xml:space="preserve">
<style type="text/css">
	.st0{fill:#FFFFFF;}
	.st1{fill:#ED252B;}
	.st2{fill:#0444a3;}
	.st3{fill:#FEFEFE;}
	.st4{fill:#FDFDFD;}
	.st5{fill:#FCFCFC;}
	.st6{fill:#FBFBFB;}
	.st7{fill:#FAFAFA;}
	.st8{fill:#F9F9F9;}
	.st9{fill:#F8F8F8;}
	.st10{fill:#F7F7F7;}
	.st11{fill:#F6F6F6;}
	.st12{fill:#F5F5F5;}
	.st13{fill:#F4F4F4;}
	.st14{fill:#F3F3F3;}
	.st15{fill:#F2F2F2;}
	.st16{fill:#F1F1F1;}
	.st17{fill:#F0F0F0;}
	.st18{fill:#EFEFF0;}
	.st19{fill:#EEEEEF;}
	.st20{fill:#EDEDEE;}
	.st21{fill:#ECECED;}
	.st22{fill:#EBEBEC;}
	.st23{fill:#EAEAEB;}
	.st24{fill:#E9E9EA;}
	.st25{fill:#E8E8E9;}
	.st26{fill:#E7E7E8;}
	.st27{fill:#E6E6E7;}
	.st28{fill:#E5E5E6;}
	.st29{fill:#E4E4E5;}
	.st30{fill:#E3E3E4;}
	.st31{fill:#E2E2E3;}
	.st32{fill:#E1E1E2;}
	.st33{fill:#E0E0E1;}
	.st34{fill:#DFE0E0;}
	.st35{fill:#DEDFDF;}
	.st36{fill:#DDDEDE;}
	.st37{fill:#DCDDDD;}
	.st38{fill:#DBDCDC;}
	.st39{fill:#DADBDB;}
	.st40{fill:#D9DADA;}
	.st41{fill:#D8D9D9;}
	.st42{fill:#D7D8D8;}
	.st43{fill:#D6D7D7;}
	.st44{fill:#D5D6D6;}
	.st45{fill:#D4D5D5;}
	.st46{fill:#D3D4D4;}
	.st47{fill:#D2D3D3;}
	.st48{fill:#D1D2D2;}
	.st49{fill:#D0D1D1;}
	.st50{fill:#CFD0D1;}
	.st51{fill:#CECFD0;}
	.st52{fill:#CDCECF;}
	.st53{fill:#CCCDCE;}
	.st54{fill:#CBCCCD;}
	.st55{fill:#CACBCC;}
	.st56{fill:#C9CACB;}
	.st57{fill:#C8C9CA;}
	.st58{fill:#C7C8C9;}
	.st59{fill:#C6C7C8;}
	.st60{fill:#C5C6C7;}
	.st61{fill:#C4C5C6;}
	.st62{fill:#C3C4C5;}
	.st63{fill:#C2C3C4;}
	.st64{fill:#C1C2C3;}
	.st65{fill:#C0C1C2;}
	.st66{fill:#C0C0C1;}
	.st67{fill:#BFBFC0;}
	.st68{fill:#BEBEBF;}
	.st69{fill:#BDBDBE;}
	.st70{fill:#BCBCBD;}
	.st71{fill:#BBBBBC;}
	.st72{fill:#BABABB;}
	.st73{fill:#B9B9BA;}
	.st74{fill:#B8B8B9;}
	.st75{fill:#B7B7B8;}
	.st76{fill:#B6B6B7;}
	.st77{fill:#B5B5B6;}
	.st78{fill:#B4B4B5;}
	.st79{fill:#B3B3B4;}
	.st80{fill:#B2B2B3;}
	.st81{fill:#B1B1B2;}
	.st82{fill:#B0B0B2;}
	.st83{fill:#AFAFB1;}
	.st84{fill:#AEAEB0;}
	.st85{fill:#ADADAF;}
	.st86{fill:#ACACAE;}
	.st87{fill:#ABABAD;}
	.st88{fill:#AAAAAC;}
	.st89{fill:#A9A9AB;}
	.st90{fill:#A8A8AA;}
	.st91{fill:#A7A7A9;}
	.st92{fill:#A6A6A8;}
	.st93{fill:#A5A5A7;}
	.st94{fill:#A4A4A6;}
	.st95{fill:#A3A3A5;}
	.st96{fill:#A2A2A4;}
	.st97{fill:#A1A1A3;}
	.st98{fill:#A0A1A2;}
	.st99{fill:#9FA0A1;}
	.st100{fill:#9E9FA0;}
	.st101{fill:#9D9E9F;}
	.st102{fill:#9C9D9E;}
	.st103{fill:#9B9C9D;}
	.st104{fill:#9A9B9C;}
	.st105{fill:#999A9B;}
	.st106{fill:#98999A;}
	.st107{fill:#979899;}
	.st108{fill:#969798;}
	.st109{fill:#959697;}
	.st110{fill:#949596;}
	.st111{fill:#939495;}
	.st112{fill:#929394;}
	.st113{fill:#919293;}
	.st114{fill:#909193;}
	.st115{fill:#8F9092;}
	.st116{fill:#8E8F91;}
	.st117{fill:#8D8E90;}
	.st118{fill:#8C8D8F;}
	.st119{fill:#8B8C8E;}
	.st120{fill:#8A8B8D;}
	.st121{fill:#898A8C;}
	.st122{fill:#88898B;}
	.st123{fill:#87888A;}
	.st124{fill:#868789;}
	.st125{fill:#858688;}
	.st126{fill:#848587;}
	.st127{fill:#838486;}
	.st128{fill:#828385;}
	.st129{fill:#818284;}
	.st130{fill:url(#SVGID_1_);}
	.st131{fill:url(#SVGID_2_);}
	.st132{fill:url(#SVGID_3_);}
	.st133{fill:url(#SVGID_4_);}
</style>
<g>
	<path class="st0" d="M13.8,96.4c0,0,73.5,15.8,89.3,0s0-89.3,0-89.3S29.6-8.8,13.8,7S13.8,96.4,13.8,96.4z"/>
	<g>
		<g>
			<g>
				<path class="st1" d="M31.4,69.1h3.2c0.5,0,0.9-0.1,1.2-0.2c0.3-0.1,0.6-0.4,0.8-0.8h0.5l-0.6,2.8c-0.2,0.7-0.5,1.3-0.9,1.6
					c-0.5,0.3-1.1,0.5-1.8,0.5h-4.9c-1.9,0-3.2-0.4-4.1-1.2c-0.9-0.8-1.3-2.2-1.3-4.2c0-1.3,0.3-2.9,0.8-5c1.1-4,2.3-6.7,3.7-8.1
					c1.1-1.1,2.8-1.6,4.9-1.6h6.3l-0.5,1.8c-0.2,0.6-0.4,1-0.7,1.3c-0.3,0.3-0.9,0.4-1.6,0.4h-1.9c-1.4,0-2.5,0.4-3.2,1.2
					c-0.7,0.9-1.4,2.8-2.1,5.6c-0.4,1.9-0.7,3.3-0.7,4.1c0,0.8,0.2,1.3,0.6,1.6C29.7,69,30.4,69.1,31.4,69.1z"/>
				<path class="st1" d="M50,56.3l-3.3,14.5c-0.1,0.3-0.1,0.5-0.1,0.7c0,0.5,0.2,0.8,0.7,0.8l-0.1,0.5h-4.9c-0.6,0-0.9-0.3-0.9-0.8
					l0.1-0.7l3.4-15h-2.8c-0.5,0-0.9,0.1-1.2,0.2c-0.3,0.1-0.6,0.4-0.8,0.8h-0.5l0.7-3.1c0.2-0.6,0.4-1.1,0.7-1.3
					c0.3-0.2,0.9-0.3,1.8-0.3h10.4c0.5,0,0.9-0.1,1.2-0.2c0.3-0.1,0.6-0.4,0.8-0.8h0.5l-0.7,3c-0.2,0.6-0.4,1.1-0.7,1.3
					c-0.3,0.2-0.9,0.3-1.8,0.3H50z"/>
				<path class="st1" d="M64.3,52.4c2.5,0,4.4,0.5,5.6,1.6c1.1,1,1.7,2.5,1.7,4.6c0,0.6,0,1.2-0.1,1.9c-0.1,0.7-0.2,1.5-0.4,2.3
					c-1,4.2-2.1,6.9-3.3,8.2c-1.4,1.4-3.8,2.1-7.2,2.1c-2.5,0-4.4-0.5-5.5-1.4c-1.1-1-1.7-2.5-1.7-4.7c0-1.5,0.3-3.4,0.8-5.7
					c0.7-3,1.7-5.1,3-6.4C58.6,53.2,61,52.4,64.3,52.4z M65.7,63.1c0.2-0.8,0.4-1.6,0.5-2.4c0.1-0.7,0.2-1.4,0.2-1.9
					c0-0.9-0.2-1.6-0.6-2c-0.4-0.4-1-0.6-1.9-0.6c-1.3,0-2.3,0.4-3,1.1c-0.8,0.9-1.4,2.4-1.9,4.8c-0.5,2.3-0.8,3.9-0.8,4.9
					c0,0.9,0.2,1.5,0.6,1.9c0.4,0.4,1.2,0.5,2.2,0.5c1.3,0,2.2-0.4,2.9-1.2C64.6,67.3,65.2,65.6,65.7,63.1z"/>
				<path class="st1" d="M82.3,71.3l3.4-14.8H80l-3.4,14.4c-0.1,0.3-0.1,0.5-0.1,0.7c0,0.5,0.2,0.8,0.7,0.8L77,72.9h-4.9
					c-0.6,0-0.9-0.3-0.9-0.8l0.1-0.7l3.8-16.7c0.1-0.3,0.1-0.5,0.1-0.7c0-0.4-0.2-0.7-0.7-0.8l0.1-0.5h15.7c0.7,0,1,0.3,1,0.9
					c0,0.3,0,0.6-0.1,0.8l-3.8,16.4c-0.1,0.3-0.1,0.5-0.1,0.7c0,0.5,0.2,0.8,0.7,0.8L88,72.9h-4.9c-0.6,0-0.9-0.3-0.9-0.8L82.3,71.3
					z"/>
			</g>
		</g>
		<g>
			<g>
				<path class="st2" d="M30.1,42.9L28.9,48c-0.1,0.3-0.1,0.5-0.1,0.7c0,0.5,0.2,0.8,0.7,0.8L29.4,50h-4.9c-0.6,0-0.9-0.3-0.9-0.8
					l0.1-0.7l3.8-16.7c0.1-0.3,0.1-0.5,0.1-0.7c0-0.4-0.2-0.7-0.7-0.8l0.1-0.5h9.6c1.6,0,2.8,0.4,3.7,1.1c0.8,0.7,1.2,1.8,1.2,3.3
					c0,0.8-0.1,1.8-0.4,3c-0.5,2.1-1.2,3.5-2.1,4.3c-1,0.9-2.5,1.4-4.6,1.4H30.1z M32.3,33.2l-1.4,6.3h2.3c0.9,0,1.6-0.2,2-0.7
					c0.4-0.4,0.7-1.4,1-2.7c0.1-0.5,0.2-1,0.2-1.4c0-0.6-0.2-1-0.5-1.2c-0.3-0.2-0.9-0.4-1.7-0.4H32.3z"/>
				<path class="st2" d="M57.3,35.9l-2.9,12.6c0,0.2,0,0.3,0,0.4c0,0.4,0.2,0.6,0.6,0.6L55,50h-4.5c-0.4,0-0.6-0.1-0.7-0.2
					c-0.1-0.2-0.2-0.4-0.2-0.7c0-0.1,0-0.3,0-0.4c0-0.1,0.1-0.4,0.1-0.6h-0.2l-0.9,1.2c-0.3,0.4-0.6,0.6-1.1,0.7
					c-0.5,0.1-1.3,0.2-2.6,0.2c-1.3,0-2.3-0.2-2.9-0.7c-0.6-0.5-0.9-1.2-0.9-2.1c0-0.6,0.1-1.5,0.4-2.8l2.1-9c0-0.2,0-0.3,0-0.4
					c0-0.4-0.2-0.6-0.6-0.6l0.1-0.5h4.5c0.4,0,0.6,0.1,0.7,0.2c0.1,0.2,0.2,0.4,0.2,0.6c0,0.2-0.1,0.5-0.1,0.8l-2,8.7
					c-0.1,0.3-0.1,0.6-0.1,0.9c0,0.4,0.1,0.7,0.3,0.8c0.2,0.2,0.5,0.2,0.8,0.2h0.7c0.6,0,1.1-0.1,1.4-0.3c0.4-0.2,0.7-0.7,0.9-1.3
					l2.2-9.4c0-0.2,0-0.3,0-0.4c0-0.4-0.2-0.6-0.6-0.6l0.1-0.5h4.5c0.4,0,0.6,0.1,0.7,0.2c0.1,0.2,0.2,0.4,0.2,0.6
					C57.4,35.3,57.4,35.5,57.3,35.9z"/>
				<path class="st2" d="M69,40l1-4.4c0-0.2,0-0.3,0-0.4c0-0.4-0.2-0.6-0.6-0.6l0.1-0.5h4.5c0.3,0,0.6,0.1,0.7,0.2
					c0.1,0.2,0.2,0.4,0.2,0.6c0,0.2,0,0.5-0.1,0.8l-3,12.6c0,0.2,0,0.3,0,0.4c0,0.4,0.2,0.6,0.6,0.6L72.2,50h-4.5
					c-0.3,0-0.6-0.1-0.7-0.2c-0.1-0.1-0.2-0.3-0.2-0.6c0-0.3,0-0.6,0.1-1l1.1-4.9H64l-1.2,5.2c0,0.2,0,0.3,0,0.4
					c0,0.4,0.2,0.6,0.6,0.6L63.3,50h-4.5c-0.3,0-0.6-0.1-0.7-0.2c-0.1-0.1-0.2-0.3-0.2-0.6c0-0.3,0.1-0.6,0.1-1l3-12.6
					c0-0.2,0-0.3,0-0.4c0-0.4-0.2-0.6-0.6-0.6l0.1-0.5H65c0.4,0,0.6,0.1,0.7,0.2c0.1,0.2,0.2,0.4,0.2,0.6c0,0.2,0,0.5-0.1,0.8
					L64.8,40H69z"/>
				<path class="st2" d="M84.2,33.9h1.1c2.3,0,3.9,0.5,4.9,1.6c0.7,0.8,1.1,2.1,1.1,3.7c0,0.3,0,0.8-0.1,1.3c-0.1,0.5-0.2,1-0.3,1.4
					l-0.6,2.3c-0.5,2.3-1.4,3.9-2.4,4.7c-1.1,0.8-2.9,1.2-5.4,1.2h-0.8c-1.9,0-3.5-0.4-4.5-1.1c-1.2-0.8-1.8-2.1-1.8-3.8
					c0-0.6,0.1-1.3,0.3-2l0.6-2.5c0.6-2.6,1.5-4.4,2.6-5.4C80,34.4,81.8,33.9,84.2,33.9z M84.4,37.3c-1,0-1.8,0.2-2.2,0.7
					c-0.5,0.5-0.9,1.5-1.2,3.1l-0.5,2.2c-0.1,0.4-0.1,0.6-0.2,0.9c0,0.2-0.1,0.5-0.1,0.7c0,1.3,0.7,1.9,2,1.9c1,0,1.7-0.3,2.2-0.8
					c0.5-0.5,0.9-1.4,1.2-2.7l0.5-1.9c0.2-0.9,0.4-1.7,0.4-2.3C86.5,37.9,85.8,37.3,84.4,37.3z"/>
			</g>
		</g>
		<g>
			<path class="st2" d="M91.5,68.9c0.3,0,0.7,0.1,1,0.3c0.3,0.2,0.6,0.4,0.8,0.7c0.2,0.3,0.3,0.7,0.3,1c0,0.3-0.1,0.7-0.3,1
				c-0.2,0.3-0.4,0.6-0.7,0.7c-0.3,0.2-0.7,0.3-1,0.3c-0.3,0-0.7-0.1-1-0.3c-0.3-0.2-0.6-0.4-0.7-0.7c-0.2-0.3-0.3-0.7-0.3-1
				c0-0.3,0.1-0.7,0.3-1c0.2-0.3,0.4-0.6,0.8-0.7C90.8,69,91.1,68.9,91.5,68.9z M91.5,69.2c-0.3,0-0.6,0.1-0.8,0.2
				c-0.3,0.1-0.5,0.4-0.6,0.6c-0.2,0.3-0.2,0.6-0.2,0.8c0,0.3,0.1,0.6,0.2,0.8c0.1,0.3,0.4,0.5,0.6,0.6c0.3,0.1,0.5,0.2,0.8,0.2
				c0.3,0,0.6-0.1,0.8-0.2c0.3-0.1,0.5-0.4,0.6-0.6c0.1-0.3,0.2-0.5,0.2-0.8c0-0.3-0.1-0.6-0.2-0.8c-0.2-0.3-0.4-0.5-0.6-0.6
				C92,69.3,91.7,69.2,91.5,69.2z M90.6,72v-2.2h0.7c0.3,0,0.4,0,0.6,0.1c0.1,0,0.2,0.1,0.3,0.2c0.1,0.1,0.1,0.2,0.1,0.3
				c0,0.2-0.1,0.3-0.2,0.4C92,71,91.8,71,91.6,71.1c0.1,0,0.1,0.1,0.2,0.1c0.1,0.1,0.2,0.2,0.3,0.4l0.3,0.4H92l-0.2-0.3
				c-0.1-0.3-0.3-0.4-0.4-0.5c-0.1,0-0.2-0.1-0.3-0.1h-0.2V72H90.6z M90.9,70.8h0.4c0.2,0,0.3,0,0.4-0.1c0.1-0.1,0.1-0.1,0.1-0.2
				c0-0.1,0-0.1-0.1-0.2c0-0.1-0.1-0.1-0.1-0.1c-0.1,0-0.2,0-0.4,0h-0.4V70.8z"/>
		</g>
	</g>
	<g>
		<path class="st0" d="M110.1,61.3c-8.7,30.2-73.2,38.2-99.7,15.4c1.1,7,2.3,15.9,3,19c0.9,1.1,1.8,2.1,2.7,3.1
			c12.2,2.4,73,13.7,87.2-0.4c4.4-4.4,6.4-13.4,6.9-24.1c0-0.1,0-0.2,0-0.4c0,0,0,0,0,0c0-1.3,0.1-2.6,0.1-3.8
			C110.2,67.2,110.2,64.3,110.1,61.3z"/>
		<path class="st3" d="M110.1,61.3c-8.7,30.1-73.2,38.2-99.7,15.4c1.1,7,2.4,15.9,3,19c0.9,1.1,1.8,2.1,2.7,3.1
			c12.2,2.4,72.9,13.7,87.1-0.4c4.4-4.4,6.4-13.4,6.9-24.1c0-0.1,0-0.2,0-0.4c0,0,0,0,0,0c0.1-1.3,0.1-2.6,0.1-3.8
			C110.2,67.3,110.2,64.3,110.1,61.3z"/>
		<path class="st4" d="M110.1,61.4c-8.7,30.1-73.3,38.1-99.7,15.4c1.1,7,2.4,15.9,3,19c0.9,1.1,1.8,2.1,2.7,3.1
			c12.2,2.4,72.8,13.7,87-0.4c4.4-4.4,6.4-13.4,6.9-24c0-0.1,0-0.2,0-0.4c0,0,0,0,0,0c0.1-1.3,0.1-2.6,0.1-3.8
			C110.1,67.4,110.2,64.4,110.1,61.4z"/>
		<path class="st5" d="M110.1,61.5c-8.7,30.1-73.3,38.1-99.7,15.4c1.1,7,2.4,15.9,3,18.9c0.9,1.1,1.9,2.1,2.8,3.1
			c12.2,2.4,72.7,13.7,86.9-0.4c4.4-4.4,6.4-13.4,6.9-24c0-0.1,0-0.2,0-0.4c0,0,0,0,0,0c0.1-1.3,0.1-2.6,0.1-3.8
			C110,67.5,110.2,64.5,110.1,61.5z"/>
		<path class="st6" d="M110.1,61.5c-8.7,30-73.3,38-99.7,15.3c1.1,7,2.4,15.8,3,18.9c0.9,1.1,1.9,2.2,2.8,3.1
			c12.2,2.4,72.6,13.7,86.7-0.4c4.4-4.4,6.4-13.4,6.9-24c0-0.1,0-0.2,0-0.4c0,0,0,0,0,0c0.1-1.3,0.1-2.6,0.1-3.8
			C110,67.6,110.2,64.5,110.1,61.5z"/>
		<path class="st7" d="M110.1,61.6c-8.7,30-73.3,38-99.7,15.3c1.1,7,2.4,15.8,3,18.9c0.9,1.1,1.9,2.2,2.8,3.2
			c12.2,2.4,72.5,13.7,86.6-0.4c4.4-4.4,6.4-13.4,6.8-24c0-0.1,0-0.2,0-0.4c0,0,0,0,0,0c0.1-1.3,0.1-2.6,0.1-3.7
			C109.9,67.7,110.2,64.6,110.1,61.6z"/>
		<path class="st8" d="M110.1,61.7c-8.7,30-73.3,37.9-99.7,15.3c1.1,7,2.4,15.8,3,18.9c0.9,1.1,1.9,2.2,2.9,3.2
			c12.1,2.4,72.4,13.7,86.5-0.4c4.4-4.4,6.4-13.4,6.8-23.9c0-0.1,0-0.2,0-0.4c0,0,0,0,0,0c0.1-1.3,0.1-2.6,0.1-3.7
			C109.9,67.8,110.2,64.7,110.1,61.7z"/>
		<path class="st9" d="M110.1,61.7c-8.7,30-73.4,37.9-99.7,15.3c1.1,7,2.4,15.8,3.1,18.9c0.9,1.1,2,2.2,2.9,3.2
			c12.1,2.4,72.3,13.7,86.4-0.3c4.4-4.4,6.4-13.3,6.8-23.9c0-0.1,0-0.2,0-0.4c0,0,0,0,0,0c0.1-1.3,0.1-2.6,0.1-3.7
			C109.8,67.9,110.2,64.7,110.1,61.7z"/>
		<path class="st10" d="M110.1,61.8c-8.6,29.9-73.4,37.8-99.7,15.2c1.1,7,2.5,15.8,3.1,18.8c0.9,1.1,2,2.3,2.9,3.2
			c12.1,2.4,72.2,13.7,86.3-0.3c4.4-4.4,6.4-13.3,6.8-23.9c0-0.1,0-0.2,0-0.4c0,0,0,0,0,0c0.1-1.3,0.1-2.6,0.1-3.7
			C109.7,68,110.2,64.8,110.1,61.8z"/>
		<path class="st11" d="M110.1,61.9c-8.6,29.9-73.4,37.8-99.6,15.2c1.1,7,2.5,15.7,3.1,18.8c0.9,1.1,2,2.3,2.9,3.2
			c12.1,2.4,72.1,13.8,86.2-0.3c4.4-4.4,6.4-13.3,6.8-23.9c0-0.1,0-0.2,0-0.4c0,0,0,0,0,0c0.1-1.3,0.1-2.6,0.1-3.7
			C109.7,68,110.2,64.9,110.1,61.9z"/>
		<path class="st12" d="M110.1,62c-8.6,29.9-73.4,37.8-99.6,15.2c1.1,6.9,2.5,15.7,3.1,18.8c0.9,1.1,2.1,2.3,3,3.3
			c12.1,2.4,72.1,13.8,86.1-0.3c4.4-4.4,6.4-13.3,6.8-23.8c0-0.1,0-0.2,0-0.4c0,0,0,0,0,0c0.1-1.3,0.1-2.6,0.1-3.7
			C109.6,68.1,110.2,64.9,110.1,62z"/>
		<path class="st13" d="M110.1,62c-8.6,29.8-73.4,37.7-99.6,15.2c1.1,6.9,2.5,15.7,3.1,18.8c0.9,1.1,2.1,2.3,3,3.3
			c12.1,2.4,72,13.8,86-0.3c4.4-4.4,6.4-13.3,6.8-23.8c0-0.1,0-0.2,0-0.4c0,0,0,0,0,0c0.1-1.3,0.1-2.6,0.1-3.7
			C109.5,68.2,110.2,65,110.1,62z"/>
		<path class="st14" d="M110.1,62.1c-8.6,29.8-73.5,37.7-99.6,15.2c1.1,6.9,2.5,15.7,3.1,18.7c0.9,1.1,2.1,2.3,3,3.3
			c12.1,2.4,71.9,13.8,85.9-0.3c4.4-4.4,6.3-13.3,6.8-23.8c0-0.1,0-0.2,0-0.4c0,0,0,0,0,0c0.1-1.3,0.1-2.6,0.1-3.7
			C109.5,68.3,110.2,65.1,110.1,62.1z"/>
		<path class="st15" d="M110.1,62.2c-8.6,29.8-73.5,37.6-99.6,15.1C11.5,84.2,13,93,13.6,96c0.9,1.1,2.1,2.4,3.1,3.3
			c12.1,2.4,71.8,13.8,85.8-0.2c4.4-4.4,6.3-13.3,6.8-23.8c0-0.1,0-0.2,0-0.3c0,0,0,0,0,0c0.1-1.3,0.1-2.5,0.1-3.7
			C109.4,68.4,110.2,65.1,110.1,62.2z"/>
		<path class="st16" d="M110.1,62.2C101.5,92,36.6,99.8,10.5,77.3C11.5,84.3,13,93,13.6,96c0.9,1.1,2.2,2.4,3.1,3.4
			c12.1,2.4,71.7,13.8,85.7-0.2c4.4-4.4,6.3-13.2,6.8-23.7c0-0.1,0-0.2,0-0.3c0,0,0,0,0,0c0.1-1.3,0.1-2.5,0.1-3.7
			C109.3,68.5,110.2,65.2,110.1,62.2z"/>
		<path class="st17" d="M110.1,62.3C101.5,92,36.6,99.8,10.5,77.4c1.1,6.9,2.6,15.6,3.2,18.7c0.9,1.1,2.2,2.4,3.1,3.4
			c12,2.4,71.6,13.8,85.6-0.2c4.4-4.4,6.3-13.2,6.8-23.7c0-0.1,0-0.2,0-0.3c0,0,0,0,0,0c0.1-1.3,0.1-2.5,0.1-3.7
			C109.3,68.6,110.2,65.3,110.1,62.3z"/>
		<path class="st18" d="M110.1,62.4c-8.6,29.7-73.5,37.5-99.6,15.1c1.1,6.9,2.6,15.6,3.2,18.7c0.9,1,2.2,2.4,3.1,3.4
			c12,2.4,71.5,13.8,85.4-0.2c4.4-4.4,6.3-13.2,6.8-23.7c0-0.1,0-0.2,0-0.3c0,0,0,0,0,0c0.1-1.3,0.1-2.5,0.1-3.7
			C109.2,68.7,110.2,65.3,110.1,62.4z"/>
		<path class="st19" d="M110.1,62.4c-8.6,29.7-73.6,37.4-99.6,15c1.1,6.9,2.6,15.6,3.2,18.6c0.9,1,2.3,2.5,3.2,3.4
			c12,2.4,71.4,13.8,85.3-0.2c4.4-4.4,6.3-13.2,6.8-23.7c0-0.1,0-0.2,0-0.3c0,0,0,0,0,0c0.1-1.3,0.1-2.5,0.1-3.7
			C109.1,68.8,110.2,65.4,110.1,62.4z"/>
		<path class="st20" d="M110.1,62.5c-8.6,29.6-73.6,37.4-99.6,15c1.1,6.9,2.6,15.6,3.2,18.6c0.9,1,2.3,2.5,3.2,3.4
			c12,2.4,71.3,13.8,85.2-0.2c4.4-4.4,6.3-13.2,6.8-23.7c0-0.1,0-0.2,0-0.3c0,0,0,0,0,0c0.1-1.3,0.1-2.5,0.1-3.7
			C109.1,68.9,110.2,65.5,110.1,62.5z"/>
		<path class="st21" d="M110.1,62.6c-8.5,29.6-73.6,37.3-99.6,15c1.1,6.9,2.6,15.5,3.2,18.6c0.9,1,2.3,2.5,3.2,3.5
			c12,2.4,71.2,13.8,85.1-0.2c4.4-4.4,6.3-13.2,6.8-23.6c0-0.1,0-0.2,0-0.3c0,0,0,0,0,0c0.1-1.3,0.1-2.5,0.1-3.7
			C109,68.9,110.2,65.5,110.1,62.6z"/>
		<path class="st22" d="M110.1,62.7c-8.5,29.6-73.6,37.3-99.6,15c1.1,6.9,2.6,15.5,3.2,18.6c0.8,1,2.3,2.5,3.3,3.5
			c12,2.4,71.1,13.8,85-0.1c4.3-4.3,6.3-13.2,6.7-23.6c0-0.1,0-0.2,0-0.3c0,0,0,0,0,0c0.1-1.3,0.1-2.5,0.1-3.7
			C108.9,69,110.2,65.6,110.1,62.7z"/>
		<path class="st23" d="M110.1,62.7c-8.5,29.5-73.6,37.3-99.6,14.9c1.1,6.9,2.7,15.5,3.3,18.5c0.8,1,2.4,2.5,3.3,3.5
			c12,2.4,71,13.8,84.9-0.1c4.3-4.3,6.3-13.2,6.7-23.6c0-0.1,0-0.2,0-0.3c0,0,0,0,0,0c0.1-1.3,0.1-2.5,0.1-3.7
			C108.9,69.1,110.2,65.7,110.1,62.7z"/>
		<path class="st24" d="M110.1,62.8c-8.5,29.5-73.7,37.2-99.6,14.9c1.1,6.9,2.7,15.5,3.3,18.5c0.8,1,2.4,2.6,3.3,3.5
			c12,2.4,70.9,13.8,84.8-0.1c4.3-4.3,6.3-13.1,6.7-23.6c0-0.1,0-0.2,0-0.3c0,0,0,0,0,0c0.1-1.3,0.1-2.5,0.1-3.7
			C108.8,69.2,110.2,65.7,110.1,62.8z"/>
		<path class="st25" d="M110.1,62.9c-8.5,29.5-73.7,37.2-99.6,14.9c1.1,6.9,2.7,15.5,3.3,18.5c0.8,1,2.4,2.6,3.3,3.5
			c11.9,2.4,70.8,13.8,84.7-0.1c4.3-4.3,6.3-13.1,6.7-23.5c0-0.1,0-0.2,0-0.3c0,0,0,0,0,0c0.1-1.3,0.1-2.5,0.1-3.7
			C108.7,69.3,110.2,65.8,110.1,62.9z"/>
		<path class="st26" d="M110.1,62.9c-8.5,29.5-73.7,37.1-99.6,14.9c1.1,6.8,2.7,15.4,3.3,18.5c0.8,1,2.5,2.6,3.4,3.6
			c11.9,2.4,70.7,13.8,84.6-0.1c4.3-4.3,6.3-13.1,6.7-23.5c0-0.1,0-0.2,0-0.3c0,0,0,0,0,0c0.1-1.3,0.1-2.5,0.1-3.7
			C108.7,69.4,110.2,65.9,110.1,62.9z"/>
		<path class="st27" d="M110.1,63c-8.5,29.4-73.7,37.1-99.6,14.9c1.1,6.8,2.7,15.4,3.3,18.5c0.8,1,2.5,2.6,3.4,3.6
			c11.9,2.4,70.6,13.8,84.5-0.1c4.3-4.3,6.3-13.1,6.7-23.5c0-0.1,0-0.2,0-0.3c0,0,0,0,0,0c0.1-1.3,0.1-2.5,0.1-3.7
			C108.6,69.5,110.2,65.9,110.1,63z"/>
		<path class="st28" d="M110.1,63.1c-8.5,29.4-73.7,37-99.6,14.8c1.1,6.8,2.7,15.4,3.3,18.4c0.8,1,2.5,2.7,3.4,3.6
			c11.9,2.4,70.5,13.8,84.4-0.1c4.3-4.3,6.3-13.1,6.7-23.5c0-0.1,0-0.2,0-0.3c0,0,0,0,0,0c0.1-1.3,0.1-2.5,0.1-3.7
			C108.5,69.6,110.2,66,110.1,63.1z"/>
		<path class="st29" d="M110.1,63.1c-8.5,29.4-73.8,37-99.5,14.8c1.1,6.8,2.7,15.4,3.3,18.4c0.8,1,2.5,2.7,3.4,3.6
			c11.9,2.4,70.5,13.8,84.3,0c4.3-4.3,6.3-13.1,6.7-23.4c0-0.1,0-0.2,0-0.3c0,0,0,0,0,0c0.1-1.3,0.1-2.5,0.1-3.7
			C108.5,69.7,110.2,66.1,110.1,63.1z"/>
		<path class="st30" d="M110.1,63.2c-8.5,29.3-73.8,36.9-99.5,14.8c1.1,6.8,2.8,15.4,3.4,18.4c0.8,1,2.6,2.7,3.5,3.6
			c11.9,2.4,70.4,13.8,84.2,0c4.3-4.3,6.2-13.1,6.7-23.4c0-0.1,0-0.2,0-0.3c0,0,0,0,0,0c0.1-1.3,0.1-2.5,0.1-3.7
			C108.4,69.8,110.2,66.1,110.1,63.2z"/>
		<path class="st31" d="M110.1,63.3c-8.5,29.3-73.8,36.9-99.5,14.8c1.1,6.8,2.8,15.3,3.4,18.4c0.8,1,2.6,2.7,3.5,3.7
			c11.9,2.4,70.3,13.8,84,0c4.3-4.3,6.2-13,6.7-23.4c0-0.1,0-0.2,0-0.3c0,0,0,0,0,0c0.1-1.3,0.1-2.5,0.1-3.7
			C108.3,69.9,110.2,66.2,110.1,63.3z"/>
		<path class="st32" d="M110.1,63.3c-8.5,29.3-73.8,36.8-99.5,14.7c1.1,6.8,2.8,15.3,3.4,18.3c0.8,1,2.6,2.7,3.5,3.7
			c11.9,2.4,70.2,13.8,83.9,0c4.3-4.3,6.2-13,6.7-23.4c0-0.1,0-0.2,0-0.3c0,0,0,0,0,0c0.1-1.3,0.1-2.5,0.1-3.7
			C108.3,69.9,110.2,66.3,110.1,63.3z"/>
		<path class="st33" d="M110.1,63.4c-8.4,29.2-73.8,36.8-99.5,14.7c1.1,6.8,2.8,15.3,3.4,18.3c0.8,1,2.7,2.8,3.6,3.7
			c11.8,2.4,70.1,13.8,83.8,0c4.3-4.3,6.2-13,6.7-23.3c0-0.1,0-0.2,0-0.3c0,0,0,0,0,0c0.1-1.3,0.1-2.5,0.1-3.7
			C108.2,70,110.2,66.3,110.1,63.4z"/>
		<path class="st34" d="M110.1,63.5c-8.4,29.2-73.9,36.8-99.5,14.7c1.1,6.8,2.8,15.3,3.4,18.3c0.8,1,2.7,2.8,3.6,3.7
			c11.8,2.4,70,13.8,83.7,0c4.3-4.3,6.2-13,6.7-23.3c0-0.1,0-0.2,0-0.3c0,0,0,0,0,0c0.1-1.3,0.1-2.5,0.1-3.6
			C108.1,70.1,110.2,66.4,110.1,63.5z"/>
		<path class="st35" d="M110.1,63.6c-8.4,29.2-73.9,36.7-99.5,14.7c1.1,6.8,2.8,15.3,3.4,18.3c0.8,1,2.7,2.8,3.6,3.7
			c11.8,2.4,69.9,13.8,83.6,0c4.3-4.3,6.2-13,6.7-23.3c0-0.1,0-0.2,0-0.3c0,0,0,0,0,0c0.1-1.3,0.1-2.5,0.1-3.6
			C108.1,70.2,110.2,66.5,110.1,63.6z"/>
		<path class="st36" d="M110.1,63.6c-8.4,29.2-73.9,36.7-99.5,14.6c1.1,6.8,2.9,15.3,3.4,18.2c0.8,1,2.8,2.8,3.6,3.8
			c11.8,2.4,69.8,13.8,83.5,0.1c4.3-4.3,6.2-13,6.7-23.3c0-0.1,0-0.2,0-0.3c0,0,0,0,0,0c0.1-1.3,0.1-2.5,0.1-3.6
			C108,70.3,110.2,66.5,110.1,63.6z"/>
		<path class="st37" d="M110.1,63.7c-8.4,29.1-73.9,36.6-99.5,14.6c1.1,6.8,2.9,15.2,3.5,18.2c0.8,1,2.8,2.8,3.7,3.8
			c11.8,2.4,69.7,13.8,83.4,0.1c4.3-4.3,6.2-13,6.6-23.2c0-0.1,0-0.2,0-0.3c0,0,0,0,0,0c0.1-1.3,0.1-2.5,0.1-3.6
			C107.9,70.4,110.2,66.6,110.1,63.7z"/>
		<path class="st38" d="M110.1,63.8c-8.4,29.1-74,36.6-99.5,14.6c1.1,6.8,2.9,15.2,3.5,18.2c0.8,1,2.8,2.9,3.7,3.8
			c11.8,2.4,69.6,13.8,83.3,0.1c4.3-4.3,6.2-13,6.6-23.2c0-0.1,0-0.2,0-0.3c0,0,0,0,0,0c0.1-1.3,0.1-2.5,0.1-3.6
			C107.9,70.5,110.2,66.7,110.1,63.8z"/>
		<path class="st39" d="M110.1,63.8c-8.4,29.1-74,36.5-99.5,14.6c1.1,6.8,2.9,15.2,3.5,18.2c0.8,1,2.8,2.9,3.7,3.8
			c11.8,2.4,69.5,13.8,83.2,0.1c4.3-4.3,6.2-12.9,6.6-23.2c0-0.1,0-0.2,0-0.3c0,0,0,0,0,0c0.1-1.3,0.1-2.5,0.1-3.6
			C107.8,70.6,110.2,66.7,110.1,63.8z"/>
		<path class="st40" d="M110.1,63.9c-8.4,29-74,36.5-99.5,14.6c1.1,6.8,2.9,15.2,3.5,18.2c0.8,1,2.9,2.9,3.8,3.9
			c11.8,2.4,69.4,13.8,83.1,0.1c4.3-4.3,6.2-12.9,6.6-23.2c0-0.1,0-0.2,0-0.3c0,0,0,0,0,0c0.1-1.3,0.1-2.5,0.1-3.6
			C107.7,70.7,110.2,66.8,110.1,63.9z"/>
		<path class="st41" d="M110.1,64c-8.4,29-74,36.4-99.5,14.5c1.1,6.7,2.9,15.2,3.5,18.1c0.8,1,2.9,2.9,3.8,3.9
			c11.8,2.4,69.3,13.8,83,0.1c4.3-4.3,6.2-12.9,6.6-23.2c0-0.1,0-0.2,0-0.3c0,0,0,0,0,0c0.1-1.3,0.1-2.5,0.1-3.6
			C107.7,70.8,110.2,66.9,110.1,64z"/>
		<path class="st42" d="M110.1,64c-8.4,29-74,36.4-99.5,14.5c1.1,6.7,2.9,15.1,3.5,18.1c0.8,1,2.9,3,3.8,3.9
			c11.7,2.3,69.2,13.8,82.9,0.2c4.3-4.3,6.2-12.9,6.6-23.1c0-0.1,0-0.2,0-0.3c0,0,0,0,0,0c0.1-1.3,0.1-2.5,0.1-3.6
			C107.6,70.8,110.2,66.9,110.1,64z"/>
		<path class="st43" d="M110.1,64.1c-8.4,28.9-74.1,36.3-99.5,14.5c1.1,6.7,3,15.1,3.6,18.1c0.8,1,3,3,3.8,3.9
			c11.7,2.3,69.1,13.8,82.8,0.2c4.3-4.3,6.2-12.9,6.6-23.1c0-0.1,0-0.2,0-0.3c0,0,0,0,0,0c0.1-1.3,0.1-2.5,0.1-3.6
			C107.6,70.9,110.2,67,110.1,64.1z"/>
		<path class="st44" d="M110.1,64.2c-8.4,28.9-74.1,36.3-99.5,14.5c1,6.7,3,15.1,3.6,18.1c0.8,1,3,3,3.9,3.9
			c11.7,2.3,69,13.8,82.6,0.2c4.3-4.3,6.2-12.9,6.6-23.1c0-0.1,0-0.2,0-0.3c0,0,0,0,0,0c0.1-1.3,0.1-2.5,0.1-3.6
			C107.5,71,110.2,67.1,110.1,64.2z"/>
		<path class="st45" d="M110.1,64.3c-8.3,28.9-74.1,36.3-99.5,14.4c1,6.7,3,15.1,3.6,18c0.8,1,3,3,3.9,4
			c11.7,2.3,68.9,13.8,82.5,0.2c4.2-4.2,6.1-12.9,6.6-23.1c0-0.1,0-0.2,0-0.3c0,0,0,0,0,0c0.1-1.3,0.1-2.5,0.1-3.6
			C107.4,71.1,110.2,67.1,110.1,64.3z"/>
		<path class="st46" d="M110.1,64.3c-8.3,28.9-74.1,36.2-99.4,14.4c1,6.7,3,15.1,3.6,18c0.8,1,3,3,3.9,4
			c11.7,2.3,68.9,13.8,82.4,0.2c4.2-4.2,6.1-12.9,6.6-23c0-0.1,0-0.2,0-0.3c0,0,0,0,0,0c0.1-1.3,0.1-2.5,0.1-3.6
			C107.4,71.2,110.2,67.2,110.1,64.3z"/>
		<path class="st47" d="M110.1,64.4c-8.3,28.8-74.1,36.2-99.4,14.4c1,6.7,3,15,3.6,18c0.8,1,3.1,3.1,4,4
			c11.7,2.3,68.8,13.8,82.3,0.2c4.2-4.2,6.1-12.8,6.6-23c0-0.1,0-0.2,0-0.3c0,0,0,0,0,0c0.1-1.3,0.1-2.5,0.1-3.6
			C107.3,71.3,110.2,67.3,110.1,64.4z"/>
		<path class="st48" d="M110.1,64.5c-8.3,28.8-74.2,36.1-99.4,14.4c1,6.7,3,15,3.6,18c0.8,1,3.1,3.1,4,4
			c11.7,2.3,68.7,13.8,82.2,0.2c4.2-4.2,6.1-12.8,6.6-23c0-0.1,0-0.2,0-0.3c0,0,0,0,0,0c0.1-1.3,0.1-2.5,0.1-3.6
			C107.2,71.4,110.2,67.3,110.1,64.5z"/>
		<path class="st49" d="M110.1,64.5c-8.3,28.8-74.2,36.1-99.4,14.3c1,6.7,3,15,3.6,18c0.8,1,3.1,3.1,4,4
			c11.7,2.3,68.6,13.8,82.1,0.3c4.2-4.2,6.1-12.8,6.6-23c0-0.1,0-0.2,0-0.3c0,0,0,0,0,0c0.1-1.3,0.1-2.5,0.1-3.6
			C107.2,71.5,110.2,67.4,110.1,64.5z"/>
		<path class="st50" d="M110.1,64.6c-8.3,28.7-74.2,36-99.4,14.3c1,6.7,3.1,15,3.7,17.9c0.8,1,3.2,3.1,4,4.1
			c11.6,2.3,68.5,13.8,82,0.3c4.2-4.2,6.1-12.8,6.6-22.9c0-0.1,0-0.2,0-0.3c0,0,0,0,0,0c0.1-1.3,0.1-2.5,0.1-3.6
			C107.1,71.6,110.2,67.5,110.1,64.6z"/>
		<path class="st51" d="M110.1,64.7c-8.3,28.7-74.2,36-99.4,14.3c1,6.7,3.1,15,3.7,17.9c0.8,1,3.2,3.2,4.1,4.1
			c11.6,2.3,68.4,13.8,81.9,0.3c4.2-4.2,6.1-12.8,6.5-22.9c0-0.1,0-0.2,0-0.3c0,0,0,0,0,0c0.1-1.3,0.1-2.5,0.1-3.6
			C107,71.7,110.2,67.5,110.1,64.7z"/>
		<path class="st52" d="M110.1,64.7c-8.3,28.7-74.2,35.9-99.4,14.3c1,6.7,3.1,14.9,3.7,17.9c0.8,1,3.2,3.2,4.1,4.1
			c11.6,2.3,68.3,13.8,81.8,0.3c4.2-4.2,6.1-12.8,6.5-22.9c0-0.1,0-0.2,0-0.3c0,0,0,0,0,0c0.1-1.3,0.1-2.5,0.1-3.6
			C107,71.8,110.2,67.6,110.1,64.7z"/>
		<path class="st53" d="M110.1,64.8c-8.3,28.6-74.3,35.9-99.4,14.3c1,6.7,3.1,14.9,3.7,17.9c0.8,1,3.2,3.2,4.1,4.1
			c11.6,2.3,68.2,13.8,81.7,0.3c4.2-4.2,6.1-12.8,6.5-22.9c0-0.1,0-0.2,0-0.3c0,0,0,0,0,0c0.1-1.3,0.1-2.5,0.1-3.6
			C106.9,71.8,110.2,67.7,110.1,64.8z"/>
		<path class="st54" d="M110.1,64.9c-8.3,28.6-74.3,35.8-99.4,14.2c1,6.7,3.1,14.9,3.7,17.8c0.8,1,3.3,3.2,4.1,4.1
			c11.6,2.3,68.1,13.8,81.6,0.3c4.2-4.2,6.1-12.7,6.5-22.8c0-0.1,0-0.2,0-0.3c0,0,0,0,0,0c0.1-1.3,0.1-2.4,0.1-3.6
			C106.8,71.9,110.2,67.7,110.1,64.9z"/>
		<path class="st55" d="M110.1,65c-8.3,28.6-74.3,35.8-99.4,14.2c1,6.6,3.1,14.9,3.7,17.8c0.8,1,3.3,3.2,4.2,4.2
			c11.6,2.3,68,13.8,81.5,0.3c4.2-4.2,6.1-12.7,6.5-22.8c0-0.1,0-0.2,0-0.3c0,0,0,0,0,0c0.1-1.3,0.1-2.4,0.1-3.6
			C106.8,72,110.2,67.8,110.1,65z"/>
		<path class="st56" d="M110.1,65c-8.2,28.6-74.3,35.8-99.4,14.2c1,6.6,3.2,14.9,3.7,17.8c0.8,1,3.3,3.3,4.2,4.2
			c11.6,2.3,67.9,13.8,81.3,0.4c4.2-4.2,6.1-12.7,6.5-22.8c0-0.1,0-0.2,0-0.3c0,0,0,0,0,0c0.1-1.2,0.1-2.4,0.1-3.6
			C106.7,72.1,110.2,67.9,110.1,65z"/>
		<path class="st57" d="M110.1,65.1c-8.2,28.5-74.3,35.7-99.4,14.2c1,6.6,3.2,14.8,3.8,17.8c0.8,1,3.4,3.3,4.2,4.2
			c11.6,2.3,67.8,13.8,81.2,0.4c4.2-4.2,6.1-12.7,6.5-22.8c0-0.1,0-0.2,0-0.3c0,0,0,0,0,0c0.1-1.2,0.1-2.4,0.1-3.6
			C106.6,72.2,110.2,67.9,110.1,65.1z"/>
		<path class="st58" d="M110.1,65.2c-8.2,28.5-74.4,35.7-99.4,14.1c1,6.6,3.2,14.8,3.8,17.7c0.8,1,3.4,3.3,4.3,4.2
			c11.5,2.3,67.7,13.8,81.1,0.4c4.2-4.2,6.1-12.7,6.5-22.8c0-0.1,0-0.2,0-0.3c0,0,0,0,0,0c0.1-1.2,0.1-2.4,0.1-3.6
			C106.6,72.3,110.2,68,110.1,65.2z"/>
		<path class="st59" d="M110.1,65.2c-8.2,28.5-74.4,35.6-99.4,14.1c1,6.6,3.2,14.8,3.8,17.7c0.8,1,3.4,3.3,4.3,4.3
			c11.5,2.3,67.6,13.8,81,0.4c4.2-4.2,6.1-12.7,6.5-22.7c0-0.1,0-0.2,0-0.3c0,0,0,0,0,0c0.1-1.2,0.1-2.4,0.1-3.6
			C106.5,72.4,110.2,68.1,110.1,65.2z"/>
		<path class="st60" d="M110.1,65.3c-8.2,28.4-74.4,35.6-99.4,14.1c1,6.6,3.2,14.8,3.8,17.7c0.8,1,3.4,3.4,4.3,4.3
			c11.5,2.3,67.5,13.8,80.9,0.4c4.2-4.2,6.1-12.7,6.5-22.7c0-0.1,0-0.2,0-0.3c0,0,0,0,0,0c0.1-1.2,0.1-2.4,0.1-3.6
			C106.4,72.5,110.2,68.1,110.1,65.3z"/>
		<path class="st61" d="M110.1,65.4c-8.2,28.4-74.4,35.5-99.4,14.1c1,6.6,3.2,14.8,3.8,17.7c0.8,1,3.5,3.4,4.3,4.3
			c11.5,2.3,67.4,13.8,80.8,0.4c4.2-4.2,6-12.7,6.5-22.7c0-0.1,0-0.2,0-0.3c0,0,0,0,0,0c0.1-1.2,0.1-2.4,0.1-3.5
			C106.4,72.6,110.2,68.2,110.1,65.4z"/>
		<path class="st62" d="M110.1,65.4c-8.2,28.4-74.4,35.5-99.4,14.1c1,6.6,3.2,14.7,3.8,17.7c0.8,1,3.5,3.4,4.4,4.3
			c11.5,2.3,67.4,13.8,80.7,0.4c4.2-4.2,6-12.6,6.5-22.7c0-0.1,0-0.2,0-0.3c0,0,0,0,0,0c0.1-1.2,0.1-2.4,0.1-3.5
			C106.3,72.7,110.2,68.3,110.1,65.4z"/>
		<path class="st63" d="M110.1,65.5c-8.2,28.4-74.5,35.4-99.3,14c1,6.6,3.3,14.7,3.8,17.6c0.8,1,3.5,3.4,4.4,4.3
			c11.5,2.3,67.3,13.8,80.6,0.5c4.2-4.2,6-12.6,6.5-22.6c0-0.1,0-0.2,0-0.3c0,0,0,0,0,0c0.1-1.2,0.1-2.4,0.1-3.5
			C106.2,72.7,110.2,68.3,110.1,65.5z"/>
		<path class="st64" d="M110.1,65.6c-8.2,28.3-74.5,35.4-99.3,14c1,6.6,3.3,14.7,3.9,17.6c0.8,1,3.6,3.4,4.4,4.4
			c11.5,2.3,67.2,13.8,80.5,0.5c4.2-4.2,6-12.6,6.5-22.6c0-0.1,0-0.2,0-0.3c0,0,0,0,0,0c0.1-1.2,0.1-2.4,0.1-3.5
			C106.2,72.8,110.2,68.4,110.1,65.6z"/>
		<path class="st65" d="M110.1,65.6c-8.2,28.3-74.5,35.3-99.3,14c1,6.6,3.3,14.7,3.9,17.6c0.8,1,3.6,3.5,4.5,4.4
			c11.5,2.3,67.1,13.8,80.4,0.5c4.2-4.2,6-12.6,6.5-22.6c0-0.1,0-0.2,0-0.3c0,0,0,0,0,0c0.1-1.2,0.1-2.4,0.1-3.5
			C106.1,72.9,110.2,68.5,110.1,65.6z"/>
		<path class="st66" d="M110.1,65.7C102,94,35.6,101,10.8,79.7c1,6.6,3.3,14.7,3.9,17.6c0.8,1,3.6,3.5,4.5,4.4
			c11.5,2.3,67,13.8,80.3,0.5c4.2-4.2,6-12.6,6.4-22.6c0-0.1,0-0.2,0-0.3c0,0,0,0,0,0c0.1-1.2,0.1-2.4,0.1-3.5
			C106,73,110.2,68.5,110.1,65.7z"/>
		<path class="st67" d="M110.1,65.8C102,94,35.6,101,10.8,79.7c1,6.6,3.3,14.6,3.9,17.5c0.8,1,3.6,3.5,4.5,4.4
			c11.4,2.3,66.9,13.8,80.2,0.5c4.2-4.2,6-12.6,6.4-22.5c0-0.1,0-0.2,0-0.3c0,0,0,0,0,0c0.1-1.2,0.1-2.4,0.1-3.5
			C106,73.1,110.2,68.6,110.1,65.8z"/>
		<path class="st68" d="M110.1,65.9c-8.1,28.2-74.6,35.2-99.3,13.9c1,6.6,3.3,14.6,3.9,17.5c0.8,1,3.7,3.5,4.5,4.4
			c11.4,2.3,66.8,13.8,80.1,0.5c4.1-4.1,6-12.6,6.4-22.5c0-0.1,0-0.2,0-0.3c0,0,0,0,0,0c0.1-1.2,0.1-2.4,0.1-3.5
			C105.9,73.2,110.2,68.7,110.1,65.9z"/>
		<path class="st69" d="M110.1,65.9c-8.1,28.2-74.6,35.2-99.3,13.9c1,6.6,3.4,14.6,3.9,17.5c0.8,1,3.7,3.6,4.6,4.5
			c11.4,2.3,66.7,13.8,79.9,0.6c4.1-4.1,6-12.5,6.4-22.5c0-0.1,0-0.2,0-0.3c0,0,0,0,0,0c0.1-1.2,0.1-2.4,0.1-3.5
			C105.8,73.3,110.2,68.7,110.1,65.9z"/>
		<path class="st70" d="M110.1,66c-8.1,28.1-74.6,35.1-99.3,13.9c1,6.5,3.4,14.6,3.9,17.5c0.8,1,3.7,3.6,4.6,4.5
			c11.4,2.3,66.6,13.8,79.8,0.6c4.1-4.1,6-12.5,6.4-22.5c0-0.1,0-0.2,0-0.3c0,0,0,0,0,0c0.1-1.2,0.1-2.4,0.1-3.5
			C105.8,73.4,110.3,68.8,110.1,66z"/>
		<path class="st71" d="M110.1,66.1c-8.1,28.1-74.6,35.1-99.3,13.8c1,6.5,3.4,14.6,4,17.5c0.8,1,3.8,3.6,4.6,4.5
			c11.4,2.3,66.5,13.8,79.7,0.6c4.1-4.1,6-12.5,6.4-22.4c0-0.1,0-0.2,0-0.3c0,0,0,0,0,0c0.1-1.2,0.1-2.4,0.1-3.5
			C105.7,73.5,110.3,68.9,110.1,66.1z"/>
		<path class="st72" d="M110.1,66.1c-8.1,28.1-74.6,35-99.3,13.8c1,6.5,3.4,14.5,4,17.4c0.8,1,3.8,3.6,4.7,4.5
			c11.4,2.3,66.4,13.8,79.6,0.6c4.1-4.1,6-12.5,6.4-22.4c0-0.1,0-0.2,0-0.3c0,0,0,0,0,0c0.1-1.2,0.1-2.4,0.1-3.5
			C105.6,73.6,110.3,68.9,110.1,66.1z"/>
		<path class="st73" d="M110.1,66.2c-8.1,28.1-74.7,35-99.3,13.8c1,6.5,3.4,14.5,4,17.4c0.8,1,3.8,3.6,4.7,4.5
			c11.4,2.3,66.3,13.8,79.5,0.6c4.1-4.1,6-12.5,6.4-22.4c0-0.1,0-0.2,0-0.3c0,0,0,0,0,0c0.1-1.2,0.1-2.4,0.1-3.5
			C105.6,73.7,110.3,69,110.1,66.2z"/>
		<path class="st74" d="M110.1,66.3c-8.1,28-74.7,34.9-99.3,13.8c1,6.5,3.4,14.5,4,17.4c0.8,1,3.9,3.7,4.7,4.6
			c11.4,2.3,66.2,13.8,79.4,0.6c4.1-4.1,6-12.5,6.4-22.4c0-0.1,0-0.2,0-0.3c0,0,0,0,0,0c0.1-1.2,0.1-2.4,0.1-3.5
			C105.5,73.7,110.3,69.1,110.1,66.3z"/>
		<path class="st75" d="M110.1,66.3c-8.1,28-74.7,34.9-99.3,13.8c1,6.5,3.4,14.5,4,17.4c0.8,1,3.9,3.7,4.7,4.6
			c11.3,2.3,66.1,13.8,79.3,0.6c4.1-4.1,6-12.5,6.4-22.3c0-0.1,0-0.2,0-0.3c0,0,0,0,0,0c0.1-1.2,0.1-2.4,0.1-3.5
			C105.5,73.8,110.3,69.1,110.1,66.3z"/>
		<path class="st76" d="M110.1,66.4c-8.1,28-74.7,34.8-99.3,13.7c1,6.5,3.5,14.5,4,17.3c0.8,1,3.9,3.7,4.8,4.6
			c11.3,2.3,66,13.8,79.2,0.7c4.1-4.1,6-12.5,6.4-22.3c0-0.1,0-0.2,0-0.3c0,0,0,0,0,0c0.1-1.2,0.1-2.4,0.1-3.5
			C105.4,73.9,110.3,69.2,110.1,66.4z"/>
		<path class="st77" d="M110.1,66.5c-8.1,27.9-74.7,34.8-99.3,13.7c1,6.5,3.5,14.4,4,17.3c0.8,1,3.9,3.7,4.8,4.6
			c11.3,2.3,65.9,13.8,79.1,0.7c4.1-4.1,5.9-12.4,6.4-22.3c0-0.1,0-0.2,0-0.3c0,0,0,0,0,0c0.1-1.2,0.1-2.4,0.1-3.5
			C105.3,74,110.3,69.3,110.1,66.5z"/>
		<path class="st78" d="M110.1,66.6c-8.1,27.9-74.8,34.8-99.3,13.7c1,6.5,3.5,14.4,4.1,17.3c0.8,1,4,3.8,4.8,4.7
			c11.3,2.3,65.8,13.8,79,0.7c4.1-4.1,5.9-12.4,6.4-22.3c0-0.1,0-0.2,0-0.3c0,0,0,0,0,0c0.1-1.2,0.1-2.4,0.1-3.5
			C105.3,74.1,110.3,69.3,110.1,66.6z"/>
		<path class="st79" d="M110.1,66.6c-8.1,27.9-74.8,34.7-99.3,13.7c1,6.5,3.5,14.4,4.1,17.3c0.8,1,4,3.8,4.8,4.7
			c11.3,2.3,65.8,13.8,78.9,0.7c4.1-4.1,5.9-12.4,6.4-22.3c0-0.1,0-0.2,0-0.3c0,0,0,0,0,0c0.1-1.2,0.1-2.4,0.1-3.5
			C105.2,74.2,110.3,69.4,110.1,66.6z"/>
		<path class="st80" d="M110.1,66.7c-8,27.8-74.8,34.7-99.3,13.6c1,6.5,3.5,14.4,4.1,17.3c0.8,1,4,3.8,4.9,4.7
			c11.3,2.3,65.7,13.8,78.8,0.7c4.1-4.1,5.9-12.4,6.4-22.2c0-0.1,0-0.2,0-0.3c0,0,0,0,0,0c0.1-1.2,0.1-2.4,0.1-3.5
			C105.1,74.3,110.3,69.5,110.1,66.7z"/>
		<path class="st81" d="M110.1,66.8c-8,27.8-74.8,34.6-99.2,13.6c1,6.5,3.5,14.4,4.1,17.2c0.8,1,4.1,3.8,4.9,4.7
			c11.3,2.3,65.6,13.8,78.6,0.7c4.1-4.1,5.9-12.4,6.3-22.2c0-0.1,0-0.2,0-0.3c0,0,0,0,0,0c0.1-1.2,0.1-2.4,0.1-3.5
			C105.1,74.4,110.3,69.5,110.1,66.8z"/>
		<path class="st82" d="M110.1,66.8c-8,27.8-74.8,34.6-99.2,13.6c1,6.5,3.5,14.3,4.1,17.2c0.8,1,4.1,3.8,4.9,4.7
			c11.3,2.3,65.5,13.8,78.5,0.7c4.1-4.1,5.9-12.4,6.3-22.2c0-0.1,0-0.2,0-0.3c0,0,0,0,0,0c0.1-1.2,0.1-2.4,0.1-3.5
			C105,74.5,110.3,69.6,110.1,66.8z"/>
		<path class="st83" d="M110.2,66.9c-8,27.8-74.9,34.5-99.2,13.6c1,6.5,3.6,14.3,4.1,17.2c0.8,1,4.1,3.9,5,4.8
			c11.2,2.3,65.4,13.8,78.4,0.8c4.1-4.1,5.9-12.4,6.3-22.2c0-0.1,0-0.2,0-0.3c0,0,0,0,0,0c0.1-1.2,0.1-2.4,0.1-3.5
			C104.9,74.6,110.3,69.7,110.2,66.9z"/>
		<path class="st84" d="M110.2,67c-8,27.7-74.9,34.5-99.2,13.5c1,6.4,3.6,14.3,4.1,17.2c0.8,1,4.1,3.9,5,4.8
			c11.2,2.2,65.3,13.8,78.3,0.8c4.1-4.1,5.9-12.3,6.3-22.1c0-0.1,0-0.2,0-0.3c0,0,0,0,0,0c0.1-1.2,0.1-2.4,0.1-3.5
			C104.9,74.6,110.3,69.7,110.2,67z"/>
		<path class="st85" d="M110.2,67c-8,27.7-74.9,34.4-99.2,13.5c1,6.4,3.6,14.3,4.2,17.1c0.8,1,4.2,3.9,5,4.8
			c11.2,2.2,65.2,13.8,78.2,0.8c4.1-4.1,5.9-12.3,6.3-22.1c0-0.1,0-0.2,0-0.3c0,0,0,0,0,0c0.1-1.2,0.1-2.4,0.1-3.5
			C104.8,74.7,110.3,69.8,110.2,67z"/>
		<path class="st86" d="M110.2,67.1c-8,27.7-74.9,34.4-99.2,13.5c1,6.4,3.6,14.3,4.2,17.1c0.8,1,4.2,3.9,5,4.8
			c11.2,2.2,65.1,13.8,78.1,0.8c4.1-4.1,5.9-12.3,6.3-22.1c0-0.1,0-0.2,0-0.3c0,0,0,0,0,0c0.1-1.2,0.1-2.4,0.1-3.5
			C104.7,74.8,110.3,69.9,110.2,67.1z"/>
		<path class="st87" d="M110.2,67.2c-8,27.6-74.9,34.3-99.2,13.5c1,6.4,3.6,14.3,4.2,17.1c0.8,1,4.2,3.9,5.1,4.8
			c11.2,2.2,65,13.8,78,0.8c4.1-4.1,5.9-12.3,6.3-22.1c0-0.1,0-0.2,0-0.3c0,0,0,0,0,0c0.1-1.2,0.1-2.4,0.1-3.5
			C104.7,74.9,110.3,69.9,110.2,67.2z"/>
		<path class="st88" d="M110.2,67.3c-8,27.6-75,34.3-99.2,13.5c1,6.4,3.6,14.2,4.2,17.1c0.8,1,4.3,4,5.1,4.9
			c11.2,2.2,64.9,13.8,77.9,0.8c4.1-4.1,5.9-12.3,6.3-22c0-0.1,0-0.2,0-0.3c0,0,0,0,0,0c0.1-1.2,0.1-2.4,0.1-3.4
			C104.6,75,110.3,70,110.2,67.3z"/>
		<path class="st89" d="M110.2,67.3c-8,27.6-75,34.3-99.2,13.4c1,6.4,3.7,14.2,4.2,17c0.8,1,4.3,4,5.1,4.9
			c11.2,2.2,64.8,13.8,77.8,0.8c4.1-4.1,5.9-12.3,6.3-22c0-0.1,0-0.2,0-0.3c0,0,0,0,0,0c0.1-1.2,0.1-2.4,0.1-3.4
			C104.5,75.1,110.3,70.1,110.2,67.3z"/>
		<path class="st90" d="M110.2,67.4c-8,27.6-75,34.2-99.2,13.4c1,6.4,3.7,14.2,4.2,17c0.8,1,4.3,4,5.2,4.9
			c11.2,2.2,64.7,13.8,77.7,0.9c4.1-4.1,5.9-12.3,6.3-22c0-0.1,0-0.2,0-0.3c0,0,0,0,0,0c0.1-1.2,0.1-2.4,0.1-3.4
			C104.5,75.2,110.3,70.1,110.2,67.4z"/>
		<path class="st91" d="M110.2,67.5c-7.9,27.5-75,34.2-99.2,13.4c1,6.4,3.7,14.2,4.2,17c0.8,1,4.3,4,5.2,4.9
			C31.5,105,85,116.6,98,103.7c4-4,5.9-12.3,6.3-22c0-0.1,0-0.2,0-0.3c0,0,0,0,0,0c0.1-1.2,0.1-2.4,0.1-3.4
			C104.4,75.3,110.3,70.2,110.2,67.5z"/>
		<path class="st92" d="M110.2,67.5c-7.9,27.5-75,34.1-99.2,13.4c1,6.4,3.7,14.2,4.3,17c0.8,1,4.4,4.1,5.2,4.9
			c11.1,2.2,64.5,13.8,77.5,0.9c4-4,5.9-12.2,6.3-21.9c0-0.1,0-0.2,0-0.3c0,0,0,0,0,0c0.1-1.2,0.1-2.4,0.1-3.4
			C104.3,75.4,110.3,70.3,110.2,67.5z"/>
		<path class="st93" d="M110.2,67.6c-7.9,27.5-75.1,34.1-99.2,13.3c1,6.4,3.7,14.1,4.3,17c0.8,1,4.4,4.1,5.2,5
			c11.1,2.2,64.4,13.8,77.4,0.9c4-4,5.8-12.2,6.3-21.9c0-0.1,0-0.2,0-0.3c0,0,0,0,0,0c0.1-1.2,0.1-2.3,0.1-3.4
			C104.3,75.5,110.3,70.3,110.2,67.6z"/>
		<path class="st94" d="M110.2,67.7c-7.9,27.4-75.1,34-99.2,13.3c1,6.4,3.7,14.1,4.3,16.9c0.8,1,4.4,4.1,5.3,5
			c11.1,2.2,64.3,13.8,77.2,0.9c4-4,5.8-12.2,6.3-21.9c0-0.1,0-0.2,0-0.3c0,0,0,0,0,0c0.1-1.2,0.1-2.3,0.1-3.4
			C104.2,75.6,110.3,70.4,110.2,67.7z"/>
		<path class="st95" d="M110.2,67.7c-7.9,27.4-75.1,34-99.2,13.3c1,6.4,3.7,14.1,4.3,16.9c0.8,1,4.5,4.1,5.3,5
			c11.1,2.2,64.2,13.8,77.1,0.9c4-4,5.8-12.2,6.3-21.9c0-0.1,0-0.2,0-0.3c0,0,0,0,0,0c0.1-1.2,0.1-2.3,0.1-3.4
			C104.1,75.6,110.3,70.5,110.2,67.7z"/>
		<path class="st96" d="M110.2,67.8C102.3,95.2,35,101.8,11,81.1c1,6.4,3.8,14.1,4.3,16.9c0.8,1,4.5,4.1,5.3,5
			c11.1,2.2,64.2,13.8,77,1c4-4,5.8-12.2,6.2-21.9c0-0.1,0-0.2,0-0.3c0,0,0,0,0,0c0.1-1.2,0.1-2.3,0.1-3.4
			C104.1,75.7,110.3,70.5,110.2,67.8z"/>
		<path class="st97" d="M110.2,67.9C102.3,95.2,35,101.8,11,81.1c1,6.4,3.8,14.1,4.3,16.9c0.8,1,4.5,4.2,5.4,5.1
			c11.1,2.2,64.1,13.8,76.9,1c4-4,5.8-12.2,6.2-21.8c0-0.1,0-0.2,0-0.3c0,0,0,0,0,0c0.1-1.2,0.1-2.3,0.1-3.4
			C104,75.8,110.3,70.6,110.2,67.9z"/>
		<path class="st98" d="M110.2,67.9C102.3,95.3,35,101.8,11,81.2c1,6.4,3.8,14,4.3,16.8c0.8,1,4.5,4.2,5.4,5.1
			c11.1,2.2,64,13.8,76.8,1c4-4,5.8-12.2,6.2-21.8c0-0.1,0-0.2,0-0.3c0,0,0,0,0,0c0.1-1.2,0.1-2.3,0.1-3.4
			C103.9,75.9,110.3,70.7,110.2,67.9z"/>
		<path class="st99" d="M110.2,68C102.3,95.3,35,101.8,11,81.2c1,6.3,3.8,14,4.4,16.8c0.8,1,4.6,4.2,5.4,5.1
			c11.1,2.2,63.9,13.8,76.7,1c4-4,5.8-12.2,6.2-21.8c0-0.1,0-0.2,0-0.3c0,0,0,0,0,0c0.1-1.2,0.1-2.3,0.1-3.4
			C103.9,76,110.3,70.7,110.2,68z"/>
		<path class="st100" d="M110.2,68.1C102.3,95.3,35,101.8,11,81.3c1,6.3,3.8,14,4.4,16.8c0.8,1,4.6,4.2,5.4,5.1
			c11,2.2,63.8,13.8,76.6,1c4-4,5.8-12.1,6.2-21.8c0-0.1,0-0.2,0-0.3c0,0,0,0,0,0c0.1-1.2,0.1-2.3,0.1-3.4
			C103.8,76.1,110.3,70.8,110.2,68.1z"/>
		<path class="st101" d="M110.2,68.2c-7.9,27.2-75.2,33.7-99.1,13.2c1,6.3,3.8,14,4.4,16.8c0.8,1,4.6,4.3,5.5,5.1
			c11,2.2,63.7,13.8,76.5,1c4-4,5.8-12.1,6.2-21.7c0-0.1,0-0.2,0-0.3c0,0,0,0,0,0c0.1-1.2,0.1-2.3,0.1-3.4
			C103.7,76.2,110.3,70.9,110.2,68.2z"/>
		<path class="st102" d="M110.2,68.2c-7.9,27.2-75.2,33.7-99.1,13.1c1,6.3,3.8,14,4.4,16.8c0.8,1,4.7,4.3,5.5,5.2
			c11,2.2,63.6,13.8,76.4,1c4-4,5.8-12.1,6.2-21.7c0-0.1,0-0.2,0-0.3c0,0,0,0,0,0c0.1-1.2,0.1-2.3,0.1-3.4
			C103.7,76.3,110.3,70.9,110.2,68.2z"/>
		<path class="st103" d="M110.2,68.3c-7.8,27.2-75.3,33.6-99.1,13.1c1,6.3,3.9,13.9,4.4,16.7c0.8,1,4.7,4.3,5.5,5.2
			c11,2.2,63.5,13.8,76.3,1.1c4-4,5.8-12.1,6.2-21.7c0-0.1,0-0.2,0-0.3c0,0,0,0,0,0c0.1-1.2,0.1-2.3,0.1-3.4
			C103.6,76.4,110.3,71,110.2,68.3z"/>
		<path class="st104" d="M110.2,68.4c-7.8,27.1-75.3,33.6-99.1,13.1c1,6.3,3.9,13.9,4.4,16.7c0.8,1,4.7,4.3,5.6,5.2
			c11,2.2,63.4,13.8,76.2,1.1c4-4,5.8-12.1,6.2-21.7c0-0.1,0-0.2,0-0.3c0,0,0,0,0,0c0.1-1.2,0.1-2.3,0.1-3.4
			C103.5,76.5,110.3,71.1,110.2,68.4z"/>
		<path class="st105" d="M110.2,68.4c-7.8,27.1-75.3,33.5-99.1,13.1c1,6.3,3.9,13.9,4.4,16.7c0.8,1,4.7,4.3,5.6,5.2
			c11,2.2,63.3,13.8,76.1,1.1c4-4,5.8-12.1,6.2-21.6c0-0.1,0-0.2,0-0.3c0,0,0,0,0,0c0.1-1.2,0.1-2.3,0.1-3.4
			C103.5,76.5,110.3,71.1,110.2,68.4z"/>
		<path class="st106" d="M110.2,68.5c-7.8,27.1-75.3,33.5-99.1,13c1,6.3,3.9,13.9,4.5,16.7c0.8,1,4.8,4.4,5.6,5.2
			c11,2.2,63.2,13.8,75.9,1.1c4-4,5.8-12.1,6.2-21.6c0-0.1,0-0.2,0-0.3c0,0,0,0,0,0c0.1-1.2,0.1-2.3,0.1-3.4
			C103.4,76.6,110.3,71.2,110.2,68.5z"/>
		<path class="st107" d="M110.2,68.6c-7.8,27-75.4,33.4-99.1,13c1,6.3,3.9,13.9,4.5,16.6c0.8,1,4.8,4.4,5.6,5.3
			c11,2.2,63.1,13.8,75.8,1.1c4-4,5.8-12,6.2-21.6c0-0.1,0-0.2,0-0.3c0,0,0,0,0,0c0.1-1.2,0.1-2.3,0.1-3.4
			C103.3,76.7,110.3,71.3,110.2,68.6z"/>
		<path class="st108" d="M110.2,68.6c-7.8,27-75.4,33.4-99.1,13c1,6.3,3.9,13.8,4.5,16.6c0.8,1,4.8,4.4,5.7,5.3
			c10.9,2.2,63,13.8,75.7,1.1c4-4,5.8-12,6.2-21.6c0-0.1,0-0.2,0-0.3c0,0,0,0,0,0c0.1-1.2,0.1-2.3,0.1-3.4
			C103.3,76.8,110.3,71.3,110.2,68.6z"/>
		<path class="st109" d="M110.2,68.7c-7.8,27-75.4,33.4-99.1,13c1,6.3,4,13.8,4.5,16.6c0.8,1,4.9,4.4,5.7,5.3
			c10.9,2.2,62.9,13.8,75.6,1.1c4-4,5.7-12,6.2-21.5c0-0.1,0-0.2,0-0.3c0,0,0,0,0,0c0.1-1.2,0.1-2.3,0.1-3.4
			C103.2,76.9,110.3,71.4,110.2,68.7z"/>
		<path class="st110" d="M110.2,68.8c-7.8,27-75.4,33.3-99.1,12.9c1,6.3,4,13.8,4.5,16.6c0.8,1,4.9,4.5,5.7,5.3
			c10.9,2.2,62.8,13.8,75.5,1.2c4-4,5.7-12,6.2-21.5c0-0.1,0-0.2,0-0.3c0,0,0,0,0,0c0.1-1.2,0.1-2.3,0.1-3.4
			C103.2,77,110.3,71.5,110.2,68.8z"/>
		<path class="st111" d="M110.2,68.9c-7.8,26.9-75.4,33.3-99.1,12.9c1,6.3,4,13.8,4.5,16.5c0.8,1,4.9,4.5,5.7,5.3
			c10.9,2.2,62.7,13.8,75.4,1.2c4-4,5.7-12,6.1-21.5c0-0.1,0-0.2,0-0.3c0,0,0,0,0,0c0.1-1.2,0.1-2.3,0.1-3.4
			C103.1,77.1,110.3,71.5,110.2,68.9z"/>
		<path class="st112" d="M110.2,68.9c-7.8,26.9-75.5,33.2-99.1,12.9c1,6.3,4,13.8,4.5,16.5c0.8,1,5,4.5,5.8,5.4
			c10.9,2.2,62.6,13.8,75.3,1.2c4-4,5.7-12,6.1-21.5c0-0.1,0-0.2,0-0.3c0,0,0,0,0,0c0.1-1.2,0.1-2.3,0.1-3.4
			C103,77.2,110.3,71.6,110.2,68.9z"/>
		<path class="st113" d="M110.2,69c-7.8,26.9-75.5,33.2-99.1,12.9c1,6.2,4,13.7,4.6,16.5c0.8,0.9,5,4.5,5.8,5.4
			c10.9,2.2,62.6,13.8,75.2,1.2c4-4,5.7-12,6.1-21.4c0-0.1,0-0.2,0-0.3c0,0,0,0,0,0c0.1-1.2,0.1-2.3,0.1-3.4
			C103,77.3,110.3,71.7,110.2,69z"/>
		<path class="st114" d="M110.2,69.1c-7.8,26.8-75.5,33.1-99.1,12.9c1,6.2,4,13.7,4.6,16.5c0.8,0.9,5,4.5,5.8,5.4
			C32.4,106,84,117.7,96.6,105c3.9-3.9,5.7-12,6.1-21.4c0-0.1,0-0.2,0-0.3c0,0,0,0,0,0c0.1-1.2,0.1-2.3,0.1-3.4
			C102.9,77.4,110.3,71.7,110.2,69.1z"/>
		<path class="st115" d="M110.2,69.1c-7.7,26.8-75.5,33.1-99.1,12.8c1,6.2,4,13.7,4.6,16.5c0.8,0.9,5,4.6,5.9,5.4
			c10.9,2.2,62.4,13.8,75,1.2c3.9-3.9,5.7-11.9,6.1-21.4c0-0.1,0-0.2,0-0.3c0,0,0,0,0,0c0.1-1.2,0.1-2.3,0.1-3.3
			C102.8,77.5,110.3,71.8,110.2,69.1z"/>
		<path class="st116" d="M110.2,69.2c-7.7,26.8-75.5,33-99,12.8c1,6.2,4.1,13.7,4.6,16.4c0.8,0.9,5.1,4.6,5.9,5.5
			c10.8,2.2,62.3,13.8,74.9,1.2c3.9-3.9,5.7-11.9,6.1-21.4c0-0.1,0-0.2,0-0.3c0,0,0,0,0,0c0.1-1.2,0.1-2.3,0.1-3.3
			C102.8,77.5,110.3,71.9,110.2,69.2z"/>
		<path class="st117" d="M110.2,69.3c-7.7,26.8-75.6,33-99,12.8c1,6.2,4.1,13.7,4.6,16.4c0.8,0.9,5.1,4.6,5.9,5.5
			c10.8,2.2,62.2,13.8,74.8,1.3c3.9-3.9,5.7-11.9,6.1-21.4c0-0.1,0-0.2,0-0.3c0,0,0,0,0,0c0.1-1.2,0.1-2.3,0.1-3.3
			C102.7,77.6,110.3,71.9,110.2,69.3z"/>
		<path class="st118" d="M110.2,69.3c-7.7,26.7-75.6,32.9-99,12.8c1,6.2,4.1,13.6,4.6,16.4c0.8,0.9,5.1,4.6,5.9,5.5
			c10.8,2.2,62.1,13.8,74.7,1.3c3.9-3.9,5.7-11.9,6.1-21.3c0-0.1,0-0.2,0-0.3c0,0,0,0,0,0c0.1-1.2,0.1-2.3,0.1-3.3
			C102.6,77.7,110.3,72,110.2,69.3z"/>
		<path class="st119" d="M110.2,69.4c-7.7,26.7-75.6,32.9-99,12.7c1,6.2,4.1,13.6,4.6,16.4c0.8,0.9,5.2,4.7,6,5.5
			c10.8,2.2,62,13.8,74.5,1.3c3.9-3.9,5.7-11.9,6.1-21.3c0-0.1,0-0.2,0-0.3c0,0,0,0,0,0c0.1-1.2,0.1-2.3,0.1-3.3
			C102.6,77.8,110.3,72.1,110.2,69.4z"/>
		<path class="st120" d="M110.2,69.5c-7.7,26.7-75.6,32.9-99,12.7c1,6.2,4.1,13.6,4.7,16.3c0.8,0.9,5.2,4.7,6,5.5
			c10.8,2.2,61.9,13.8,74.4,1.3c3.9-3.9,5.7-11.9,6.1-21.3c0-0.1,0-0.2,0-0.3c0,0,0,0,0,0c0.1-1.2,0.1-2.3,0.1-3.3
			C102.5,77.9,110.3,72.1,110.2,69.5z"/>
		<path class="st121" d="M110.2,69.6c-7.7,26.6-75.6,32.8-99,12.7c1,6.2,4.1,13.6,4.7,16.3c0.8,0.9,5.2,4.7,6,5.6
			c10.8,2.2,61.8,13.8,74.3,1.3c3.9-3.9,5.7-11.9,6.1-21.3c0-0.1,0-0.2,0-0.3c0,0,0,0,0,0c0.1-1.2,0.1-2.3,0.1-3.3
			C102.4,78,110.3,72.2,110.2,69.6z"/>
		<path class="st122" d="M110.2,69.6c-7.7,26.6-75.7,32.8-99,12.7c1,6.2,4.1,13.6,4.7,16.3c0.8,0.9,5.2,4.7,6.1,5.6
			c10.8,2.2,61.7,13.8,74.2,1.3c3.9-3.9,5.7-11.8,6.1-21.2c0-0.1,0-0.2,0-0.3c0,0,0,0,0,0c0.1-1.2,0.1-2.3,0.1-3.3
			C102.4,78.1,110.3,72.3,110.2,69.6z"/>
		<path class="st123" d="M110.2,69.7c-7.7,26.6-75.7,32.7-99,12.6c1,6.2,4.2,13.5,4.7,16.3c0.8,0.9,5.3,4.7,6.1,5.6
			c10.8,2.2,61.6,13.8,74.1,1.4c3.9-3.9,5.7-11.8,6.1-21.2c0-0.1,0-0.2,0-0.3c0,0,0,0,0,0c0.1-1.2,0.1-2.3,0.1-3.3
			C102.3,78.2,110.3,72.3,110.2,69.7z"/>
		<path class="st124" d="M110.2,69.8c-7.7,26.5-75.7,32.7-99,12.6c1,6.2,4.2,13.5,4.7,16.3c0.8,0.9,5.3,4.8,6.1,5.6
			c10.8,2.2,61.5,13.9,74,1.4c3.9-3.9,5.7-11.8,6.1-21.2c0-0.1,0-0.2,0-0.3c0,0,0,0,0,0c0.1-1.2,0.1-2.3,0.1-3.3
			C102.2,78.3,110.3,72.4,110.2,69.8z"/>
		<path class="st125" d="M110.2,69.8c-7.7,26.5-75.7,32.6-99,12.6c1,6.2,4.2,13.5,4.7,16.2c0.8,0.9,5.3,4.8,6.1,5.6
			c10.7,2.1,61.4,13.9,73.9,1.4c3.9-3.9,5.6-11.8,6-21.2c0-0.1,0-0.2,0-0.3c0,0,0,0,0,0c0.1-1.2,0.1-2.3,0.1-3.3
			C102.2,78.4,110.3,72.5,110.2,69.8z"/>
		<path class="st126" d="M110.2,69.9c-7.6,26.5-75.7,32.6-99,12.6c1,6.2,4.2,13.5,4.7,16.2c0.8,0.9,5.4,4.8,6.2,5.7
			c10.7,2.1,61.3,13.9,73.8,1.4c3.9-3.9,5.6-11.8,6-21.1c0-0.1,0-0.2,0-0.3c0,0,0,0,0,0c0.1-1.2,0.1-2.3,0.1-3.3
			C102.1,78.4,110.3,72.5,110.2,69.9z"/>
		<path class="st127" d="M110.2,70c-7.6,26.5-75.8,32.5-99,12.6c1,6.2,4.2,13.5,4.8,16.2c0.8,0.9,5.4,4.8,6.2,5.7
			c10.7,2.1,61.2,13.9,73.7,1.4c3.9-3.9,5.6-11.8,6-21.1c0-0.1,0-0.2,0-0.3c0,0,0,0,0,0c0.1-1.2,0.1-2.3,0.1-3.3
			C102,78.5,110.3,72.6,110.2,70z"/>
		<path class="st128" d="M110.2,70c-7.6,26.4-75.8,32.5-99,12.5c1,6.1,4.2,13.4,4.8,16.2c0.8,0.9,5.4,4.8,6.2,5.7
			c10.7,2.1,61.1,13.9,73.6,1.4c3.9-3.9,5.6-11.8,6-21.1c0-0.1,0-0.2,0-0.3c0,0,0,0,0,0c0.1-1.2,0.1-2.3,0.1-3.3
			C102,78.6,110.3,72.7,110.2,70z"/>
		<path class="st129" d="M110.2,70.1c-7.6,26.4-75.8,32.4-99,12.5c1,6.1,4.3,13.4,4.8,16.1c0.8,0.9,5.4,4.9,6.3,5.7
			c10.7,2.1,61.1,13.9,73.5,1.4c3.9-3.9,5.6-11.8,6-21.1c0-0.1,0-0.2,0-0.3c0,0,0,0,0,0c0-1.2,0.1-2.3,0.1-3.3
			C101.9,78.7,110.3,72.7,110.2,70.1z"/>
	</g>
	<linearGradient id="SVGID_1_" gradientUnits="userSpaceOnUse" x1="8.5747" y1="60.6229" x2="4.4519" y2="73.5806">
		<stop  offset="0" style="stop-color:#FF0703"/>
		<stop  offset="1" style="stop-color:#770A1C"/>
	</linearGradient>
	<path class="st130" d="M6.5,81.2c0,0-4.6-3.3-4.4-10.6c0.2-6.4,1.1-8.7,6-11.8l0.8,7C5.5,67.8,4.3,76,6.5,81.2z"/>
	<linearGradient id="SVGID_2_" gradientUnits="userSpaceOnUse" x1="13.0364" y1="51.8665" x2="2.0364" y2="72.1998">
		<stop  offset="0" style="stop-color:#FFF800"/>
		<stop  offset="1" style="stop-color:#746D00"/>
	</linearGradient>
	<path class="st131" d="M7.3,79.5c0,0-5.4-6.8-6.9-13.9c-1.3-6.2,1.8-13,7.1-13.9l0.6,7.2C5.3,61.5,0.8,70.6,7.3,79.5z"/>
	<linearGradient id="SVGID_3_" gradientUnits="userSpaceOnUse" x1="0.3142" y1="87.6508" x2="110.2111" y2="87.6508">
		<stop  offset="0" style="stop-color:#FFF800"/>
		<stop  offset="0.4946" style="stop-color:#FFFF45"/>
		<stop  offset="1" style="stop-color:#746D00"/>
	</linearGradient>
	<path class="st132" d="M110.2,62.9c0,0-0.8,20.9-2.9,31.5c-6,21.8-100.8,35.3-107-28.8C11.1,108.4,100.4,99,110.2,62.9z"/>
	<linearGradient id="SVGID_4_" gradientUnits="userSpaceOnUse" x1="2.407" y1="90.9317" x2="110.2698" y2="90.9317">
		<stop  offset="0" style="stop-color:#FF0703"/>
		<stop  offset="0.2634" style="stop-color:#ED252B"/>
		<stop  offset="0.5269" style="stop-color:#FF433E"/>
		<stop  offset="1" style="stop-color:#770A1C"/>
	</linearGradient>
	<path class="st133" d="M110.2,62.9c0,0,0.7,22.4-2.9,36.6c-6,21.8-86.9,37.6-104.9-23C24.1,120.5,100.4,99,110.2,62.9z"/>
</g>
</svg>
