<?xml version="1.0" encoding="utf-8"?>
<!-- Generator: Adobe Illustrator 19.0.1, SVG Export Plug-In . SVG Version: 6.00 Build 0)  -->
<svg version="1.1" id="Layer_1" xmlns="http://www.w3.org/2000/svg" xmlns:xlink="http://www.w3.org/1999/xlink" x="0px" y="0px"
	 viewBox="0 0 54.1 56.8" style="enable-background:new 0 0 54.1 56.8;" xml:space="preserve">
<style type="text/css">
	.st0{fill:#FFFFFF;}
</style>
<path class="st0" d="M54.1,1.9c-0.1-0.1-0.2-0.2-0.2-0.3c-0.7-1-1.7-1.6-2.9-1.6c0,0,0,0,0,0c-1.2,0-2.2,0.6-2.9,1.6
	c-0.5,0.7-1.1,1.1-1.9,1.1c-0.8,0-1.5-0.4-1.9-1.1c-0.7-1-1.7-1.6-2.9-1.6c0,0,0,0,0,0c-1.2,0-2.2,0.6-2.9,1.6
	c-0.5,0.7-1.1,1.1-1.9,1.1c-0.8,0-1.5-0.4-1.9-1.1c-0.7-1-1.7-1.6-2.9-1.6c-1.2,0-2.2,0.6-2.9,1.6c-0.5,0.7-1.2,1.1-1.9,1.1h0
	c-0.8,0-1.5-0.4-1.9-1.1c-0.7-1-1.7-1.6-2.9-1.6c0,0,0,0,0,0c-1.2,0-2.2,0.6-2.9,1.6c-0.5,0.7-1.1,1.1-1.9,1.1
	c-0.8,0-1.5-0.4-1.9-1.1c-0.7-1-1.7-1.6-2.9-1.6c0,0,0,0,0,0c-1.2,0-2.2,0.6-2.9,1.6C9.2,2.3,8.5,2.7,7.7,2.7
	c-0.8,0-1.5-0.4-1.9-1.1C5.1,0.6,4.1,0,2.9,0C1.7,0,0.7,0.6,0,1.6v55.2h54.1V1.9z"/>
</svg>
