<?xml version="1.0" encoding="utf-8"?>
<!-- Generator: Adobe Illustrator 19.0.1, SVG Export Plug-In . SVG Version: 6.00 Build 0)  -->
<svg version="1.1" id="Layer_1" xmlns="http://www.w3.org/2000/svg" xmlns:xlink="http://www.w3.org/1999/xlink" x="0px" y="0px"
	 viewBox="0 0 82.7 39.2" style="enable-background:new 0 0 82.7 39.2;" xml:space="preserve">
<style type="text/css">
	.st0{fill:#FFFFFF;}
</style>
<path class="st0" d="M82.7,1.6C82,0.6,80.9,0,79.8,0s-2.2,0.6-2.9,1.6c-0.5,0.7-1.1,1.1-1.9,1.1c-0.8,0-1.5-0.4-1.9-1.1
	c-0.7-1-1.7-1.6-2.9-1.6c0,0,0,0,0,0c-1.2,0-2.2,0.6-2.9,1.6c-0.5,0.7-1.1,1.1-1.9,1.1s-1.5-0.4-1.9-1.1c-0.7-1-1.7-1.6-2.9-1.6
	c-1.2,0-2.2,0.6-2.9,1.6c-0.5,0.7-1.2,1.1-1.9,1.1h0c-0.8,0-1.5-0.4-1.9-1.1c-0.7-1-1.7-1.6-2.9-1.6c0,0,0,0,0,0
	c-1.2,0-2.2,0.6-2.9,1.6c-0.5,0.7-1.1,1.1-1.9,1.1c-0.8,0-1.5-0.4-1.9-1.1c-0.7-1-1.7-1.6-2.9-1.6c0,0,0,0,0,0
	c-1.2,0-2.2,0.6-2.9,1.6c-0.5,0.7-1.1,1.1-1.9,1.1c-0.8,0-1.5-0.4-1.9-1.1c-0.7-1-1.7-1.6-2.9-1.6c-1.2,0-2.2,0.6-2.9,1.6
	c-0.5,0.7-1.2,1.1-1.9,1.1h0c-0.8,0-1.5-0.4-1.9-1.1c-0.7-1-1.7-1.6-2.9-1.6c0,0,0,0,0,0c-1.2,0-2.2,0.6-2.9,1.6
	c-0.5,0.7-1.1,1.1-1.9,1.1c-0.8,0-1.5-0.4-1.9-1.1c-0.7-1-1.7-1.6-2.9-1.6c0,0,0,0,0,0c-1.2,0-2.2,0.6-2.9,1.6
	C9.2,2.3,8.5,2.7,7.7,2.7c-0.8,0-1.5-0.4-1.9-1.1C5.1,0.6,4.1,0,2.9,0C1.7,0,0.7,0.6,0,1.6v37.6h82.7V1.6z"/>
</svg>
