<?xml version="1.0" encoding="utf-8"?>
<!-- Generator: Adobe Illustrator 19.2.1, SVG Export Plug-In . SVG Version: 6.00 Build 0)  -->
<svg version="1.1" id="Слой_1" xmlns="http://www.w3.org/2000/svg" xmlns:xlink="http://www.w3.org/1999/xlink" x="0px" y="0px"
	 viewBox="0 0 697.7 147" style="enable-background:new 0 0 697.7 147;" xml:space="preserve">
<style type="text/css">
	.st0{fill:#49598E;}
	.st1{fill:#45A2CF;}
	.st2{fill:#4C77A9;}
	.st3{fill:#74B65F;}
</style>
<g>
	<path class="st0" d="M467.1,103.4v0.8c0,3.8,2.9,6.7,6.7,6.7h0.8h1.7V84.7c0-5-2.1-10-5.4-13.3s-8.3-5.4-13.3-5.4h-16.7
		c-3.3,0-6.7,0.8-10,2.9v-5.4v-0.4c0-3.8-2.9-6.7-6.7-6.7h-0.4h-2.1v55h2.5c3.8,0,6.7-2.9,6.7-6.7v-1.2V85.2c0-5.4,4.6-10,10-10
		h16.7c5.4,0,10,4.6,10,10v18.3L467.1,103.4L467.1,103.4z M543.8,80.9c0-8.3-7.1-15.4-15.4-15.4h-31.7V68l0,0c0,3.8,2.9,6.7,6.7,6.7
		h0.4h24.6c3.3,0,6.2,2.9,6.2,6.2v0.4h-32.5c-8.3,0-15,6.7-15,14.6c0,2.1,0.4,4.2,1.3,5.8c2.5,5.4,7.9,8.8,14.2,8.8h39.2h2.5V80.9
		H543.8z M534.6,101.7h-32.5c-3.3,0-5.8-2.5-5.8-5.4c0-1.7,0.8-3.3,2.5-4.6c0.8-0.8,2.1-1.2,3.3-1.2h32.1v11.2H534.6z M678,65.5
		h-49.2c-10.4,0-18.8,8.3-18.8,19.2v26.2h2.5c3.8,0,6.7-2.9,6.7-6.7v-0.8V84.6c0-5.4,4.6-10,9.6-10h20v28.8v0.4
		c0,3.8,2.9,6.7,6.7,6.7h0.4h2.1V74.7h20c5.4,0,9.6,4.6,9.6,10v18.8v0.8c0,3.8,2.9,6.7,6.7,6.7h2.5V84.8
		C696.7,74.2,688.4,65.5,678,65.5z M558.8,110.9c3.8,0,6.7-2.9,6.7-6.7v-0.8V84.6c0-5.4,4.6-10,9.6-10h20.4h1.3
		c3.8,0,6.7-2.9,6.7-6.7v-2.5h-28.3c-10.4,0-18.8,8.3-18.8,18.8v26.2h1.7L558.8,110.9z M395.9,65.5h-45v45h2.1h0.4
		c3.8,0,6.7-2.9,6.7-6.7v-0.4v-8.7h35.4c8.3,0,15.4-6.7,15.4-14.6C411.3,72.1,404.2,65.5,395.9,65.5z M395.9,85.9h-35.4V74.7h35.4
		c3.3,0,6.2,2.5,6.2,5.8C402.1,83.4,399.2,85.9,395.9,85.9z M408.8,128.4h-17.9c-0.8,0-1.3,0.4-1.3,1.2v0.4c0,0.8,0.4,1.2,1.3,1.2
		h7.5v14.2c0,0.8,0.4,1.2,1.3,1.2h0.8c0.8,0,1.3-0.4,1.3-1.2v-14.2h7.5c0.8,0,1.3-0.4,1.3-1.2v-0.4
		C410.1,128.8,409.6,128.4,408.8,128.4z M370.5,129.2c-1.3-0.4-2.9-0.8-5.4-0.8h-5c-5.4,0-8.3,1.7-8.3,5v8.3c0,0.8,0.4,1.7,0.8,2.1
		c1.3,1.7,3.8,2.5,7.9,2.5h5c5.8,0,8.3-1.7,8.3-5V133C373.4,131.3,372.6,130,370.5,129.2z M370.1,141.7c0,1.7-1.7,2.1-5,2.1h-5.4
		c-3.3,0-5-0.8-5-2.1v-8.3c0-1.7,1.7-2.5,5-2.5h5.4c3.3,0,5,0.8,5,2.5V141.7z M604.6,129.2c-0.4-0.4-0.8-0.8-2.1-0.8
		c-0.8,0-1.7,0.4-2.1,0.8L590,145.4c0,0,0,0,0,0.4v0.4c0.4,0.4,0.8,0.8,1.3,0.8c0.4,0,0.4,0,0.8-0.4c0,0,0,0,0.4-0.4l2.9-4.2h14.2
		l2.9,4.2c0.4,0.4,0.8,0.8,1.3,0.8c0.4,0,0.8,0,1.3-0.4c0.4-0.4,0.4-0.8,0.4-1.2V145L604.6,129.2z M597.6,139.2l5-7.5l5,7.5H597.6z
		 M449.2,128.8c-0.4,0-0.4-0.4-0.8-0.4s-0.8,0-1.7,0.4c-0.4,0-0.4,0.4-0.8,0.4l-15.4,12.9v-12.9c0-0.8-0.4-1.2-1.3-1.2h-0.8
		c-0.8,0-1.3,0.4-1.3,1.2v15c0,0.8,0.4,1.2,0.8,1.7c0.4,0.4,0.8,0.4,1.7,0.4c0.4,0,0.4,0,0.8-0.4c0,0,0.4,0,0.4-0.4l15.4-13.3v12.9
		c0,0.8,0.4,1.2,1.3,1.2h0.8c0.8,0,1.3-0.4,1.3-1.2v-15.8C450.1,129.2,450.1,128.8,449.2,128.8z M648.8,129.2
		c-1.3-0.4-2.9-0.8-4.6-0.8h-13.8c-0.8,0-1.3,0.4-1.3,1.2v15.8c0,0.8,0.4,1.2,1.3,1.2h0.8c0.8,0,1.3-0.4,1.3-1.2V140h11.7
		c2.1,0,3.8-0.4,5-0.8c1.7-0.8,2.9-2.1,2.9-3.8v-2.9C651.7,131.3,650.9,130,648.8,129.2z M648.4,135.5c0,0.8-0.4,1.7-1.3,1.7
		c-0.8,0.4-1.7,0.4-2.9,0.4h-11.6v-6.2h11.7c2.9,0,4.2,0.4,4.2,1.7L648.4,135.5L648.4,135.5z M695.1,128.8c-0.8,0-1.7,0.4-2.1,0.8
		l-11.2,13.8l-11.7-13.8c-0.4-0.4-1.3-0.8-1.7-0.8c-0.4,0-0.8,0-1.3,0.4c-0.4,0.4-0.4,0.8-0.4,1.2v15.4c0,0.8,0.4,1.2,1.3,1.2h0.8
		c0.8,0,1.3-0.4,1.3-1.2v-11.7l10,12.1c0.4,0.8,1.3,0.8,2.1,0.8s1.7-0.4,2.1-0.8l10-12.1v11.7c0,0.8,0.4,1.2,1.3,1.2h0.8
		c0.8,0,1.3-0.4,1.3-1.2v-15C696.7,129.2,696.3,128.8,695.1,128.8z M578,129.2c-1.3-0.4-2.9-0.8-4.6-0.8h-22.5
		c-1.7,0-3.3,0.4-4.6,0.8c-2.1,0.8-2.9,1.7-2.9,3.3v2.9c0,1.7,0.8,3.3,2.9,3.8c1.3,0.4,2.9,0.8,5,0.8h9.2v5.4c0,0.8,0.4,1.2,1.3,1.2
		h0.8c0.8,0,1.3-0.4,1.3-1.2V140h9.2c2.1,0,3.8-0.4,5-0.8c1.7-0.8,2.9-2.1,2.9-3.8v-2.9C580.9,131.3,579.6,130,578,129.2z
		 M560.1,137.5h-9.6c-1.3,0-2.5,0-2.9-0.4c-0.8-0.4-1.3-0.8-1.3-1.7v-2.5c0-1.2,1.3-1.7,4.2-1.7h9.6L560.1,137.5L560.1,137.5z
		 M577.6,135.5c0,0.8-0.4,1.7-1.3,1.7c-0.8,0.4-1.7,0.4-2.9,0.4h-9.6v-6.2h9.6c2.9,0,4.2,0.4,4.2,1.7L577.6,135.5L577.6,135.5z
		 M525.9,128.8c-0.4,0-0.4-0.4-0.8-0.4s-0.8,0-1.7,0.4c-0.4,0-0.4,0.4-0.8,0.4l-15.4,12.9v-12.9c0-0.8-0.4-1.2-1.3-1.2h-0.8
		c-0.8,0-1.3,0.4-1.3,1.2v15c0,0.8,0.4,1.2,0.8,1.7c0.4,0.4,0.8,0.4,1.7,0.4c0.4,0,0.8,0,0.8-0.4c0,0,0.4,0,0.4-0.4l15.4-13.3v12.9
		c0,0.8,0.4,1.2,1.3,1.2h0.8c0.8,0,1.3-0.4,1.3-1.2v-15.8C526.7,129.2,526.7,128.8,525.9,128.8z M486.3,128.4h-12.1
		c-1.3,0-2.1,0-2.9,0c-1.3,0-2.1,0.8-3.3,1.2c-1.3,0.8-1.7,1.7-1.7,2.9v9.2c0,1.7,0.8,2.9,2.5,3.8c0.8,0.4,1.7,0.8,2.9,0.8
		c0.4,0,1.7,0,2.9,0h11.2c0.8,0,1.3-0.4,1.3-1.2v-0.4c0-0.8-0.4-1.2-1.3-1.2h-11.2c-1.3,0-2.5,0-2.9-0.4c-1.3-0.4-2.1-0.8-2.1-1.7
		v-9.2c0-1.2,1.3-1.7,4.2-1.7h11.7c0.8,0,1.3-0.4,1.3-1.2v-0.4C487.6,128.8,487.1,128.4,486.3,128.4z"/>
	<g>
		<path class="st1" d="M59.6,146.3c-16.3,0-30.4-5.8-42.1-17.1C5.8,118,0,103.8,0,87.5s5.8-30.4,17.5-41.7
			c11.7-11.7,25.8-17.1,42.1-17.1s30.4,5.8,42.1,17.1c11.7,11.7,17.5,25.4,17.5,41.7c0,16.7-5.8,30.4-17.5,41.7
			C90.1,140.9,76.3,146.3,59.6,146.3z M59.6,57.5c-8.3,0-15,2.9-20.8,8.8c-5.8,5.8-8.3,12.9-8.3,21.2c0,8.3,2.9,15.4,8.3,21.2
			c5.8,5.8,12.5,8.8,20.8,8.8s15-2.9,20.8-8.8c5.8-5.8,8.3-12.9,8.3-21.2c0-8.3-2.9-15.4-8.3-21.2C74.6,60.5,68,57.5,59.6,57.5z"/>
		<path class="st0" d="M283.4,146.3c-16.3,0-30.4-5.8-42.1-17.1c-11.7-11.2-17.5-25.4-17.5-41.7s5.8-30.4,17.5-41.7
			c11.7-11.7,25.4-17.1,42.1-17.1h36.2c0,8.3-2.1,15-6.7,20.4c-4.6,5.8-10.8,8.7-19.2,8.7h-10.8c-8.3,0-15,2.9-20.8,8.8
			c-5.8,5.8-8.7,12.9-8.7,21.2s2.9,15.4,8.7,21.2c5.8,5.8,12.5,8.8,20.8,8.8h10.8c7.9,0,14.2,2.9,19.2,8.7
			c4.2,5.4,6.7,12.1,6.7,20.4h-36.2V146.3z"/>
		<path class="st2" d="M220.5,125.9c-4.6-5.8-11.2-8.8-19.2-8.8h-12.9c-8.3,0-15-2.9-20.8-8.7c-5.8-5.8-8.3-12.9-8.3-21.2v-5.4
			c-1.7-0.8-3.3-2.1-5-3.8c-3.8-3.8-6.2-8.7-6.2-14.6s2.1-10.8,5.8-14.6c1.7-1.7,3.3-2.9,5-3.8V27.1c0-8.3-2.9-15-9.2-20
			C143.9,2.5,137.2,0,128.5,0v86.7c0,16.7,5.8,30.4,17.5,41.7c11.7,11.3,25.8,17.1,42.1,17.1h38.3
			C226.7,138.4,224.6,131.3,220.5,125.9z"/>
		<path class="st3" d="M218.4,49.2c0,9.2-2.5,16.2-7.5,21.2c-3.3,3.3-6.7,5.8-9.2,6.7c-1.7,0.4-23.7,0.8-27.5,0.8h-5
			c-4.2,0-7.5-1.2-10.4-4.2c-2.9-2.9-4.2-6.2-4.2-10.4s1.3-7.5,4.2-10.4c2.9-2.9,6.2-4.2,10.4-4.2h49.2"/>
	</g>
</g>
</svg>
