<?xml version="1.0" encoding="utf-8"?>
<!-- Generator: Adobe Illustrator 19.0.1, SVG Export Plug-In . SVG Version: 6.00 Build 0)  -->
<svg version="1.1" id="Layer_1" xmlns="http://www.w3.org/2000/svg" xmlns:xlink="http://www.w3.org/1999/xlink" x="0px" y="0px"
	 viewBox="0 0 127.4 156" style="enable-background:new 0 0 127.4 156;" xml:space="preserve">
<style type="text/css">
	.st0{}
</style>
<g>
	<path id="XMLID_21_" class="st0" d="M125.6,100c-3.5-9.9-11.3-16.7-21.7-18.6c-0.8-0.9-4.9-6.7-9.1-35.3
		c-2.7-18.8-3.7-36.3-3.1-41.7C92,2.2,90.4,0.3,88.2,0c-2.2-0.2-4.1,1.3-4.4,3.5c-0.8,7.4,0.7,27.6,3.5,46.1
		c1.5,10.2,3.3,18.9,5.2,25.2c2.7,9.3,5.6,13.6,9.5,14.3c10.5,1.8,14.5,9.2,16,13.5c2.4,7,1.5,14.9-2.4,19.3c-1.8,2-4,3-6.6,3
		c0.5-0.8,0.7-1.7,0.6-2.7c-0.3-2.2-2.4-3.7-4.5-3.3c-3,0.6-12.5,1.8-21.4,17.1c-3.9,6.7-7.9,12.1-19.3,12.1h-1.5
		c-11.4,0-15-5.6-19.3-12.1c-1.5-2.3-8.2-16.2-21.5-17.1c-2.2-0.1-4.2,1.2-4.5,3.3c-0.2,1,0.1,2,0.6,2.8c-4.6,0.4-7.6-1.1-9.2-4.7
		c-2.9-6.4-0.1-15.7,2.5-17.6c1.8-1.3,2.2-3.8,0.9-5.5c-1.3-1.8-3.8-2.2-5.5-0.9c-6.5,4.7-9,18.5-5.1,27.3c1.6,3.6,4.3,6.3,7.6,7.9
		c3.7,1.7,8.1,2,13.3,0.8c4.7-1,7.4-0.2,9.6,1.9c0.1,0.2,3.1,3.8,4.6,6.1C41.3,147,47.3,156,62.9,156h1.5c15.7,0,21.6-9.1,25.9-15.7
		c4.1-6.2,6.3-9.7,14.2-8c6.7,1.5,12.7-0.4,17-5.2C127.4,120.7,129,109.8,125.6,100z"/>
	<path id="XMLID_20_" class="st0" d="M24.6,76.3c0.4,0.1,0.7,0.2,1.1,0.2c1.7,0,3.3-1.1,3.8-2.9C37.1,47,36.9,5.7,36.9,3.9
		c0-2.2-1.8-3.9-4-3.9c0,0,0,0,0,0c-2.2,0-3.9,1.8-3.9,4c0,0.4,0.3,41.9-7.1,67.4C21.3,73.5,22.5,75.7,24.6,76.3z"/>
	<path id="XMLID_19_" class="st0" d="M63.7,134.7c-6.7,0-15.7-2-20.6-11.4c0-0.1-0.1-0.2-0.1-0.2c-1.1-1.9-0.4-4.3,1.5-5.4
		c1.9-1.1,4.3-0.4,5.4,1.5c0.1,0.1,0.2,0.3,0.3,0.5c0.9,1.8,3.7,7.1,13.6,7.1c10.2,0,12.8-6.9,12.9-7c0.7-2.1,3-3.1,5.1-2.4
		c2.1,0.7,3.1,3,2.4,5.1C83.8,123,79.4,134.7,63.7,134.7z"/>
</g>
</svg>
